<svg id="Layer_1" data-name="Layer 1" xmlns="http://www.w3.org/2000/svg" viewBox="0 0 33.83 33.83"><defs><style>.cls-1{fill:#ebebed;}</style></defs><circle class="cls-1" cx="16.91" cy="16.91" r="16.91"/><path d="M11.63,18.07l4.46,6.74a3.24,3.24,0,0,0,2.51,1.48h.34a3.1,3.1,0,0,0,2.4-1L22.6,24l2.4,2.4a1.1,1.1,0,0,0,1.59,0,1.1,1.1,0,0,0,0-1.6l-2.39-2.4,1.25-1.26a3.44,3.44,0,0,0,1-2.74A3.57,3.57,0,0,0,25,15.9l-6.74-4.46A5.54,5.54,0,0,0,16.88,5.5a1.09,1.09,0,0,0-1.59,0L5.58,15.21a1.1,1.1,0,0,0,0,1.6,5.72,5.72,0,0,0,4,1.71A8.9,8.9,0,0,0,11.63,18.07Zm5.48-4.69,6.63,4.34a.88.88,0,0,1,.46.8,1.3,1.3,0,0,1-.35.92l-4.11,4.23a1.33,1.33,0,0,1-.91.34,1,1,0,0,1-.8-.46l-4.34-6.62.11-.12,3.2-3.2ZM16.09,8a3.52,3.52,0,0,1-.69,3.89l-3.2,3.2a3.51,3.51,0,0,1-3.88.68Z" transform="translate(-0.09 -0.09)"/></svg>