<svg id="Layer_1" data-name="Layer 1" xmlns="http://www.w3.org/2000/svg" viewBox="0 0 127.71 127.71"><defs><style>.cls-1{fill:#1e1e1e;}</style></defs><path class="cls-1" d="M127.23,63.69l-6.88-12-6.55-1.46,5-4.55-.07-13.87-12-7-6.41,2,2-6.41-7-12L81.43,8.31l-4.55,4.95L75.42,6.71l-12-6.87L51.33,6.71l-1.48,6.55L45.3,8.31,31.44,8.4l-7,12,2,6.41-6.39-2-12,7L8,45.64l4.94,4.55L6.38,51.65l-6.86,12L6.38,75.75l6.55,1.47L8,81.77l.09,13.86,12,7,6.39-2-2,6.39,7,12,13.86.09,4.55-5,1.47,6.56,12.06,6.86,12-6.86,1.46-6.56,4.55,5L95.3,119l7-12-2-6.41,6.41,2,12-7,.07-13.86-5-4.55,6.55-1.47Zm-21-34,8,4.64.06,9.22-7.3,4.9L92.7,46.77l5.63-13.18ZM88.33,70.39l5.5-4.13,10.28,8.36L91,76.71Zm4.85,23.13L80.82,88.81,81.63,82l6.84-.81ZM88.33,57,91,50.69l13.08,2.1L93.83,61.15Zm-6.7-11.57-.81-6.85,12.36-4.71L88.47,46.25Zm1.84-32.6,9.23.06,4.65,8-3.86,7.89L80.31,34.37,78.58,20.14ZM76.39,36.05l-6.33,2.71-4.14-5.53L74.28,23Zm-21-26.44,8-4.57,8,4.57.6,8.76L63.38,29.84,54.76,18.37ZM52.45,23l8.36,10.26L56.7,38.76,50.36,36ZM34.06,12.9l9.22-.06,4.88,7.3L46.44,34.37,33.26,28.75,29.4,20.86Zm1.66,63.81L22.65,74.62l10.27-8.36,5.51,4.13ZM45.11,82l.83,6.85L33.55,93.52l4.73-12.37ZM32.9,61.15,22.65,52.79l13.07-2.1L38.43,57Zm5.36-14.9L33.55,33.88l12.39,4.71-.83,6.85ZM12.54,43.59l.05-9.22,8-4.64,7.87,3.86L34,46.77,19.81,48.49ZM9.29,71.71l-4.57-8,4.57-8L18,55.1l11.47,8.59L18,72.3Zm11.26,26-8-4.68-.05-9.2,7.27-4.9L34,80.65,28.42,93.81Zm22.73,16.87-9.22-.06-4.66-8,3.86-7.87L46.44,93l1.72,14.23Zm7.08-23.21,6.34-2.7,4.11,5.52-8.36,10.26Zm21,26.44-8,4.57-8-4.57-.6-8.76,8.62-11.46L72,109Zm2.91-13.36L65.92,94.17l4.14-5.52,6.33,2.7Zm2.33-17.81-8-3.52-5.2,7.08-5.2-7.08-8,3.52-1-8.72-8.72-1,3.54-8-7.1-5.2L44,58.51l-3.52-8,8.72-1,1-8.72,8,3.52,5.2-7.08,5.2,7.08,8-3.52,1,8.72,8.73,1-3.53,8,7.07,5.18-7.07,5.2,3.53,8-8.73,1ZM92.7,114.5l-9.23.06-4.89-7.3L80.31,93l13.18,5.64,3.86,7.87Zm21.52-30.69L114.16,93l-8,4.64-7.87-3.86L92.7,80.63l14.22-1.72ZM108.71,72.3,97.23,63.69l11.46-8.59,8.76.59,4.56,8-4.56,8Z"/></svg>