<svg width="27" height="24" viewBox="0 0 27 24" fill="none" xmlns="http://www.w3.org/2000/svg">
<path d="M13.2305 22.2763C13.2305 22.2763 1.23047 15.5563 1.23047 7.39626C1.23047 5.95372 1.73026 4.55574 2.64481 3.44017C3.55937 2.32459 4.83218 1.56034 6.2467 1.27744C7.66123 0.994532 9.13008 1.21045 10.4033 1.88846C11.6766 2.56647 12.6756 3.66469 13.2305 4.99626C13.7853 3.66469 14.7843 2.56647 16.0576 1.88846C17.3309 1.21045 18.7997 0.994532 20.2142 1.27744C21.6288 1.56034 22.9016 2.32459 23.8161 3.44017C24.7307 4.55574 25.2305 5.95372 25.2305 7.39626C25.2305 15.5563 13.2305 22.2763 13.2305 22.2763Z" stroke="black" stroke-width="2" stroke-linecap="round" stroke-linejoin="round"/>
</svg>
