<?xml version="1.0" encoding="UTF-8"?>
<svg id="Layer_1" data-name="Layer 1" xmlns="http://www.w3.org/2000/svg" viewBox="0 0 25.09 24.57">
  <defs>
    <style>
      .cls-1 {
        fill: #2b2b2b;
      }
    </style>
  </defs>
  <g id="fav">
    <path class="cls-1" d="m12.55,23.45c-.17,0-.34-.04-.49-.13-.49-.28-12.06-6.85-12.06-15.19,0-1.61.56-3.19,1.59-4.44,1.02-1.25,2.46-2.11,4.04-2.43,1.58-.32,3.24-.07,4.67.69.88.47,1.65,1.12,2.25,1.9.6-.78,1.37-1.43,2.25-1.9,1.42-.76,3.08-1,4.67-.69,1.58.32,3.02,1.18,4.04,2.43,1.02,1.25,1.59,2.83,1.59,4.44,0,8.34-11.57,14.92-12.06,15.19-.15.08-.32.13-.49.13ZM7,3.12c-.33,0-.65.03-.98.1-1.13.23-2.16.84-2.89,1.73-.73.89-1.13,2.02-1.13,3.17,0,6.3,8.41,11.85,10.55,13.16,2.14-1.31,10.55-6.86,10.55-13.16,0-1.15-.4-2.28-1.13-3.17s-1.76-1.51-2.89-1.73c-1.13-.23-2.31-.05-3.33.49-1.02.54-1.82,1.43-2.27,2.49-.16.37-.52.62-.92.62s-.77-.24-.92-.62c-.44-1.07-1.25-1.95-2.27-2.49-.73-.39-1.54-.59-2.36-.59Z"/>
  </g>
</svg>