<svg width="19" height="20" viewBox="0 0 19 20" fill="none" xmlns="http://www.w3.org/2000/svg">
<path d="M7.88287 1.02993C8.72077 0.323354 9.94597 0.323354 10.7839 1.02994L17.5339 6.72204C18.0408 7.14956 18.3334 7.77894 18.3334 8.4421V18.2448C18.3334 19.2113 17.5499 19.9948 16.5834 19.9948H13.0834C12.1169 19.9948 11.3334 19.2113 11.3334 18.2448V12.7448C11.3334 12.6068 11.2215 12.4948 11.0834 12.4948H7.58337C7.44527 12.4948 7.33336 12.6068 7.33336 12.7448V18.2448C7.33336 19.2113 6.54987 19.9948 5.58337 19.9948H2.08337C1.11687 19.9948 0.333374 19.2113 0.333374 18.2448V8.4421C0.333374 7.77894 0.625924 7.14956 1.13289 6.72204L7.88287 1.02993ZM9.81687 2.17664C9.53757 1.94111 9.12917 1.94111 8.84987 2.17664L2.09988 7.86875C1.93089 8.01125 1.83337 8.22105 1.83337 8.4421V18.2448C1.83337 18.3829 1.9453 18.4948 2.08337 18.4948H5.58337C5.72144 18.4948 5.83336 18.3829 5.83336 18.2448V12.7448C5.83336 11.7783 6.61687 10.9948 7.58337 10.9948H11.0834C12.0499 10.9948 12.8334 11.7783 12.8334 12.7448V18.2448C12.8334 18.3829 12.9453 18.4948 13.0834 18.4948H16.5834C16.7215 18.4948 16.8334 18.3829 16.8334 18.2448V8.4421C16.8334 8.22105 16.7359 8.01125 16.5669 7.86875L9.81687 2.17664Z" fill="#212121"/>
</svg>
