<svg width="20" height="20" viewBox="0 0 20 20" fill="none" xmlns="http://www.w3.org/2000/svg">
<path d="M9.91797 0.858398C7.3366 0.858398 7.01433 0.870276 6.00079 0.91541C4.98883 0.96292 4.29994 1.12208 3.69419 1.35725C3.06944 1.59955 2.53891 1.92499 2.01076 2.45314C1.48261 2.98129 1.15638 3.51103 0.914868 4.13657C0.679695 4.74232 0.519745 5.43121 0.473027 6.44317C0.425518 7.45671 0.416016 7.77899 0.416016 10.3604C0.416016 12.9417 0.427893 13.264 0.473027 14.2775C0.520537 15.2887 0.679695 15.9784 0.914868 16.5841C1.15717 17.2081 1.48261 17.7394 2.01076 18.2676C2.53891 18.7949 3.06864 19.1219 3.69419 19.3635C4.30073 19.5978 4.98962 19.7586 6.00079 19.8053C7.01433 19.8528 7.3366 19.8623 9.91797 19.8623C12.4993 19.8623 12.8216 19.8504 13.8351 19.8053C14.8463 19.7578 15.536 19.5978 16.1417 19.3635C16.7657 19.1212 17.297 18.7949 17.8252 18.2676C18.3525 17.7394 18.6796 17.2105 18.9211 16.5841C19.1555 15.9784 19.3162 15.2887 19.3629 14.2775C19.4104 13.264 19.4199 12.9417 19.4199 10.3604C19.4199 7.77899 19.408 7.45671 19.3629 6.44317C19.3154 5.432 19.1555 4.74153 18.9211 4.13657C18.6788 3.51182 18.3525 2.98129 17.8252 2.45314C17.297 1.92499 16.7681 1.59876 16.1417 1.35725C15.536 1.12208 14.8463 0.962128 13.8351 0.91541C12.8216 0.8679 12.4993 0.858398 9.91797 0.858398ZM9.91797 2.56875C12.4542 2.56875 12.7567 2.58142 13.7583 2.62497C14.6848 2.66852 15.1876 2.82214 15.5217 2.95358C15.9668 3.12541 16.2819 3.33128 16.6161 3.66306C16.9478 3.99563 17.1537 4.31157 17.3255 4.75657C17.4554 5.09073 17.6106 5.59354 17.6526 6.51998C17.6977 7.52243 17.708 7.82333 17.708 10.3604C17.708 12.8974 17.6961 13.1991 17.6494 14.2007C17.6011 15.1272 17.4467 15.63 17.316 15.9641C17.1387 16.4091 16.9367 16.7243 16.6042 17.0584C16.2724 17.3902 15.9517 17.5961 15.5115 17.7679C15.1789 17.8978 14.6682 18.053 13.7417 18.0949C12.7329 18.1401 12.436 18.1504 9.89421 18.1504C7.35165 18.1504 7.05471 18.1385 6.04671 18.0918C5.11948 18.0435 4.60875 17.8891 4.27618 17.7584C3.82563 17.581 3.51603 17.3791 3.18425 17.0466C2.85089 16.7148 2.63789 16.3941 2.4716 15.9538C2.34095 15.6213 2.18734 15.1105 2.13904 14.1841C2.1034 13.1864 2.09073 12.8784 2.09073 10.3485C2.09073 7.81779 2.1034 7.50897 2.13904 6.49939C2.18734 5.57295 2.34095 5.06301 2.4716 4.73044C2.63789 4.2791 2.85089 3.97029 3.18425 3.63693C3.51603 3.30515 3.82563 3.09136 4.27618 2.92587C4.60875 2.79442 5.1084 2.64001 6.03484 2.5925C7.04442 2.55687 7.34136 2.545 9.88234 2.545L9.91797 2.56875ZM9.91797 5.4811C7.22179 5.4811 5.03872 7.66655 5.03872 10.3604C5.03872 13.0565 7.22416 15.2396 9.91797 15.2396C12.6141 15.2396 14.7972 13.0542 14.7972 10.3604C14.7972 7.66417 12.6118 5.4811 9.91797 5.4811ZM9.91797 13.5277C8.16803 13.5277 6.75065 12.1103 6.75065 10.3604C6.75065 8.61041 8.16803 7.19303 9.91797 7.19303C11.6679 7.19303 13.0853 8.61041 13.0853 10.3604C13.0853 12.1103 11.6679 13.5277 9.91797 13.5277ZM16.1307 5.28868C16.1307 5.91819 15.6191 6.42892 14.9904 6.42892C14.3609 6.42892 13.8502 5.9174 13.8502 5.28868C13.8502 4.65997 14.3617 4.14924 14.9904 4.14924C15.6183 4.14845 16.1307 4.65997 16.1307 5.28868Z" fill="black"/>
</svg>
