<svg id="Layer_1" data-name="Layer 1" xmlns="http://www.w3.org/2000/svg" viewBox="0 0 350 87.64"><path d="M60.58,14.52V59.85c0,2.76.55,4.15,1.66,4.7v.55H52.57v-.55c1.1-.83,1.65-1.94,1.65-4.7V11.48L32.94,49.9h-.83L10,15.08V55.7a11.38,11.38,0,0,0,5,9.13v.55H5v-.55a11.67,11.67,0,0,0,5-9.13V14.25L6.41,9h6.91L35.43,44.65,55.05,9h7.19v.55C61.13,10.38,60.58,11.48,60.58,14.52Z"/><polygon points="11.36 61.6 9.1 62.01 8.79 11.56 10.87 12.58 11.36 61.6"/><path d="M104.25,64H96.51V52.66C94.57,59.85,90.15,64.27,83,64.27c-6.36,0-12.44-3-13.55-8.84-1.38-8.29,3.32-13,9.4-15.48A11.07,11.07,0,0,1,89.6,25.3a12.42,12.42,0,0,1,13.27,11.49,13.22,13.22,0,0,1,0,1.78v19.9c0,2.76.55,4.14,1.65,4.7V64ZM96.51,51.28V38.85a10.38,10.38,0,0,0-4.7-.83c-8.29,0-19.9,4.42-16.58,18.51a9.13,9.13,0,0,0,9.4,6.64C91.26,62.89,94.85,57.09,96.51,51.28ZM79.37,39.67a35.24,35.24,0,0,1,12.44-2.21,13.19,13.19,0,0,1,4.7.83v-.55c0-6.08-2.21-11.33-7.74-11.33a9.73,9.73,0,0,0-10.06,9.38A9.85,9.85,0,0,0,79.37,39.67Z"/><path d="M258.19,52.39c-.55,5.8-5.25,13.26-16.31,13.26s-21-5.52-21.28-18.79C220.33,33,232.21,27,240.78,26.41c6.63-.28,15.75,3,16.58,12.71h-7.19A12,12,0,0,1,258.19,52.39Zm-10.78-13h-19.9a22.2,22.2,0,0,0,.55,12.71A15.74,15.74,0,0,0,244.65,64a13.65,13.65,0,0,0,13.26-11.34C258.47,44.37,253.21,39.4,247.41,39.4Zm-19.9-.83h24.6c-1.11-6.91-6.91-12.71-14.65-11.06A14.12,14.12,0,0,0,227.51,38.57Z"/><path d="M302.13,42.44c.56,19.9-17.13,23.21-26,23.21A50.94,50.94,0,0,1,267.59,64c-1.11,0-1.39,1.1-1.66,1.65h-.56V13.42c0-2.76-.27-3.59-1.65-3.87V9l7.46-1.66h.55V48.52c1.38-9.4,5.25-21.83,16-21.83A15.3,15.3,0,0,1,302.13,42.44Zm-6.08-1.11c-.27-6.91-5.25-14.64-11.61-13.26-8.84,1.66-12.71,18.51-12.71,25.15v11a10.38,10.38,0,0,0,4.7.83C283.62,65.1,297.16,61.78,296.05,41.33Z"/><path d="M308.21,16.46a3.6,3.6,0,1,1,7.19,0h0a3.73,3.73,0,0,1-3.59,3.87h0A4.12,4.12,0,0,1,308.21,16.46Z"/><path d="M345,64.55v.55H335.3v-.55c1.1-.83,1.66-2.21,1.38-4.7S335.3,43.54,335,39.4c-.55-6.08-3.32-12.71-9.95-11.33-8.57,1.66-10.22,18.51-10.22,25.15v6.63c0,2.76.55,4.15,1.65,4.7v.55h-9.67v-.55c1.11-.83,1.66-1.94,1.66-4.7V32.77c0-2.77-.28-3.6-1.66-3.87v-.56L314,26.69h.55V46.58c1.11-8.84,3.59-19.89,13.54-19.89,6.36,0,11.61,4.42,12.72,14.09.82,7.74,1.65,16.31,1.93,19.07S343.87,64,345,64.55Z"/><path d="M219.5,31.11l-1.39,2.21L214.8,38l-.55-.28c-.28-3.87-1.94-8.84-5.26-9.67h-1.38c-.27,0-.55.27-.83.27a7.06,7.06,0,0,0-3.59,3.87,33.44,33.44,0,0,0-2.49,8.29,101.54,101.54,0,0,0-1.38,16v3a8.63,8.63,0,0,0,.28,2.77v.27a3.48,3.48,0,0,0,.83,1.11l.55,1.1h-9.67v-.55h.27l.28-.27c.55-.28.55-.56.83-1.11v-.28a7.51,7.51,0,0,0,.27-2.76l-.27-46.43c-.28-2.77-.28-3.59-1.94-3.87V9l7.19-1.66h.55v39a53.17,53.17,0,0,1,1.11-6.64c1.38-6.9,4.14-13.26,10-13.26h1.38C214.52,26.68,216.46,28.34,219.5,31.11Z"/><path d="M173.62,70.35c-3.87.28-8.85,4.42-14.37,7.74-5,3-9.4,6.36-13.27,6.08-2.76,0-4.15-1.93-4.42-4.7s2.21-5,5.25-6.08l1.38-.83c-.55,0-1.38.28-1.93.28-4.43,1.11-9.12,3.59-8.85,7.46s3,5.25,7.19,5a24,24,0,0,0,11.05-4.7,11.7,11.7,0,0,0,10.23,5.8c6.63,0,14.37-4.14,14.37-10.5a5.88,5.88,0,0,0-6.19-5.57Zm1.66,7.46c-.28,5.26-3.6,8.57-9.68,8.57a10.89,10.89,0,0,1-9.67-5.53c1.16-.79,2.36-1.53,3.59-2.21,4.42-2.76,9.4-6.35,11.89-6.63C174.45,71.46,175.55,74.22,175.28,77.81Z"/><path d="M181.63,37.46l-3.87-6.91-3.59-.82,2.76-2.49v-8l-6.63-3.87-3.59,1.11,1.1-3.59L163.94,6h-7.46L154,8.72l-.83-3.59-6.36-3.87-6.63,3.87-.83,3.59L136.86,6H129.4l-3.87,6.91,1.1,3.59L123,15.35l-6.63,3.87v8l2.76,2.49-3.59.82-3.87,6.91,3.87,6.91,3.59.83-2.76,2.49v8L123,59.57l3.59-1.1-1.1,3.59L129.4,69h7.46l2.49-2.76.83,3.59,6.08,3.59.55.28,1.38-.83h0l.55-.28h0l4.7-2.76.83-3.59L156.76,69h7.46l3.87-6.91L167,58.47l3.59,1.1,6.63-3.87V48l-2.76-2.49,3.59-.83ZM170,18.39l4.42,2.77v5.25l-3.87,2.49-7.74-1.11,3-7.46Zm-9.4,29.3,2.49,6.63-6.64-2.48.56-3.6Zm0-20.18L157,27l-.56-3.87,6.64-2.48Zm0,13.82,3-2.21,5.53,4.7-6.91,1.11Zm3-5.52-2.77-2.22L162.29,30l6.91,1.11ZM157.59,9h5l2.49,4.42-1.93,4.14-7.19,3.32-.83-8ZM154,21.71l-3.32,1.38-2.21-3,4.42-5.53ZM142.39,7.06l4.42-2.48,4.42,2.48.28,4.7-4.7,6.36-4.7-6.36Zm-1.66,7.46,4.42,5.53-2.21,3-3.32-1.38ZM130.78,9h5l2.49,3.87-.83,8-7.18-3.32-1.94-4.14Zm5.8,39,.56,3.87-6.64,2.48L133,47.41v.28ZM130,39.12l2.76,2.21-1.38,3.6-6.91-1.11Zm0-3.31-5.53-4.7L131.33,30l1.38,3.32Zm3-8.57-2.49-6.63,6.64,2.48-.56,3.6Zm-13.82-6.08,4.42-2.77,4.15,1.94,3,7.46L123,28.9l-3.87-2.49Zm-1.66,21L115,37.74l2.48-4.42,4.43-.28,6.35,5-6.35,5Zm6.08,14.37-4.42-2.76V48.52L123,46l7.74,1.11-3,7.46ZM136,66.21h-5l-2.49-4.43,1.93-4.14,7.19-3.32.83,8Zm3.59-12.72,3.32-1.38,2.21,3,.28-.27-2.21-3,2.21,3-.28.27-4.42,5.53Zm11.61,14.65-4.42,2.49-4.42-2.49-.28-5,4.7-6.64,4.7,6.64Zm1.66-7.46-4.42-5.53,2.21-3L154,53.49ZM154,44.93l-.56,4.69-4.14-1.93-2.77,3.59-2.76-3.59-4.15,1.93-.55-4.69-4.42-.56,1.66-4.14-3.6-2.77,3.6-2.76-1.66-4.15,4.42-.55.55-4.7,4.15,1.94,2.76-3.59,2.77,3.59,4.14-1.94L154,30l4.42.55-1.66,4.15,3.59,2.76-3.59,2.77,1.66,4.14Zm11.33,16.85-2.21-4.42h0l1.93,4.15-2.49,4.42h-5l-2.49-3.87.83-8,7.19,3.31h0Zm8.84-7.73-4.42,2.76-4.15-1.93-3-7.47,7.74-1.1,3.87,2.49Zm-2.49-11.61-6.35-5,6.35-5,4.43.28,2.48,4.42-2.48,4.42Z"/></svg>