<?xml version="1.0" encoding="utf-8"?>
<!-- Generator: Adobe Illustrator 24.2.3, SVG Export Plug-In . SVG Version: 6.00 Build 0)  -->
<svg version="1.1" id="Layer_1" xmlns="http://www.w3.org/2000/svg" xmlns:xlink="http://www.w3.org/1999/xlink" x="0px" y="0px"
	 viewBox="0 0 124 31" style="enable-background:new 0 0 124 31;" xml:space="preserve">
<style type="text/css">
	.st0{clip-path:url(#SVGID_2_);}
	.st1{fill:#FFFFFF;}
</style>
<g>
	<defs>
		<rect id="SVGID_1_" x="0.5" y="0" width="123" height="31"/>
	</defs>
	<clipPath id="SVGID_2_">
		<use xlink:href="#SVGID_1_"  style="overflow:visible;"/>
	</clipPath>
	<g class="st0">
		<path class="st1" d="M20.6,4.8v16.4c0,1,0.2,1.5,0.6,1.7v0.2h-3.5v-0.2c0.4-0.3,0.6-0.7,0.6-1.7V3.7l-7.7,13.9h-0.3l-8-12.6v14.7
			c0,1.2,0.8,2.8,1.8,3.3v0.2H0.5v-0.2c0.9-0.5,1.8-2,1.8-3.3v-15L1,2.8h2.5l8,12.9l7.1-12.9h2.6V3C20.8,3.3,20.6,3.7,20.6,4.8z"/>
		<path class="st1" d="M36.4,22.7h-2.8v-4.1c-0.7,2.6-2.3,4.2-4.9,4.2c-2.3,0-4.5-1.1-4.9-3.2c-0.5-3,1.2-4.7,3.4-5.6
			c-0.7-1.7,0.1-5.3,3.9-5.3c2.3,0,4.8,1.3,4.8,4.8v7.2c0,1,0.2,1.5,0.6,1.7V22.7L36.4,22.7z M33.6,18.1v-4.5
			c-0.1-0.1-0.8-0.3-1.7-0.3c-3,0-7.2,1.6-6,6.7c0.4,1.6,2,2.5,3.4,2.4C31.7,22.3,33,20.2,33.6,18.1L33.6,18.1z M27.4,13.9
			c1.5-0.6,3.2-0.8,4.5-0.8c0.6,0,1.2,0.1,1.7,0.3v-0.2c0-2.2-0.8-4.1-2.8-4.1C28.2,9,26.6,11.5,27.4,13.9L27.4,13.9z"/>
		<path class="st1" d="M92.1,18.5c-0.2,2.1-1.9,4.8-5.9,4.8c-4,0-7.6-2-7.7-6.8c-0.1-5,4.2-7.2,7.3-7.4c2.4-0.1,5.7,1.1,6,4.6h-2.6
			C90.9,14.2,92.3,15.9,92.1,18.5L92.1,18.5z M88.2,13.8h-7.2c-0.4,1.5-0.3,3.2,0.2,4.6c1,3,3.1,4.4,6,4.3c2.4-0.1,4.5-1.8,4.8-4.1
			C92.2,15.6,90.3,13.8,88.2,13.8z M81,13.5h8.9c-0.4-2.5-2.5-4.6-5.3-4C82.7,9.9,81.5,11.6,81,13.5z"/>
		<path class="st1" d="M108,14.9c0.2,7.2-6.2,8.4-9.4,8.4c-1.5,0-2.5-0.6-3.1-0.6c-0.4,0-0.5,0.4-0.6,0.6h-0.2V4.4
			c0-1-0.1-1.3-0.6-1.4V2.8l2.7-0.6H97v14.9c0.5-3.4,1.9-7.9,5.8-7.9C105.1,9.2,107.9,11.2,108,14.9L108,14.9z M105.8,14.5
			c-0.1-2.5-1.9-5.3-4.2-4.8c-3.2,0.6-4.6,6.7-4.6,9.1v4c0.1,0.1,0.8,0.3,1.7,0.3C101.3,23.1,106.2,21.9,105.8,14.5L105.8,14.5z"/>
		<path class="st1" d="M110.2,5.5c0-0.8,0.6-1.4,1.3-1.4c0.7,0,1.3,0.6,1.3,1.4c0,0.8-0.6,1.4-1.3,1.4
			C110.8,6.8,110.2,6.2,110.2,5.5z"/>
		<path class="st1" d="M123.5,22.9v0.2H120v-0.2c0.4-0.3,0.6-0.8,0.5-1.7c-0.1-1-0.5-5.9-0.6-7.4c-0.2-2.2-1.2-4.6-3.6-4.1
			c-3.1,0.6-3.7,6.7-3.7,9.1v2.4c0,1,0.2,1.5,0.6,1.7v0.2h-3.5v-0.2c0.4-0.3,0.6-0.7,0.6-1.7v-9.8c0-1-0.1-1.3-0.6-1.4V9.8l2.6-0.6
			h0.2v7.2c0.4-3.2,1.3-7.2,4.9-7.2c2.3,0,4.2,1.6,4.6,5.1c0.3,2.8,0.6,5.9,0.7,6.9C122.8,22.3,123.1,22.7,123.5,22.9L123.5,22.9z"
			/>
		<path class="st1" d="M75,9.1c-0.2,0-0.3,0-0.5,0c-2.1,0-3.1,2.3-3.6,4.8c-0.2,0.8-0.3,1.6-0.4,2.4L70.5,2.2h-0.2l-2.6,0.6v0.2
			c0.6,0.1,0.6,0.4,0.7,1.4l0.1,16.8c0,0.4,0,0.8-0.1,1c0,0,0,0.1,0,0.1c-0.1,0.2-0.1,0.3-0.3,0.4c0,0-0.1,0.1-0.1,0.1
			c0,0-0.1,0-0.1,0c0,0.1,0,0.2,0,0.2l3.5,0c0,0,0-0.1,0-0.2c0,0-0.1,0-0.1-0.1c-0.1,0-0.1-0.1-0.1-0.1c-0.1-0.1-0.2-0.2-0.3-0.4
			c0,0,0-0.1,0-0.1c-0.1-0.3-0.1-0.6-0.1-1l0-1.1c0-1.2,0.1-3.6,0.5-5.8c0.2-1.1,0.5-2.2,0.9-3c0.3-0.7,0.8-1.2,1.3-1.4
			c0.1,0,0.2-0.1,0.3-0.1c0.2,0,0.4,0,0.5,0c1.2,0.3,1.8,2.1,1.9,3.5l0.2,0.1l1.2-1.7l0.5-0.8C77,9.8,76.3,9.2,75,9.1L75,9.1z"/>
		<path class="st1" d="M61.5,25c-1.4,0.1-3.2,1.6-5.2,2.8c-1.8,1.1-3.4,2.3-4.8,2.2c-1,0-1.5-0.7-1.6-1.7c-0.1-1.1,0.8-1.8,1.9-2.2
			l0.5-0.3c-0.2,0-0.5,0.1-0.7,0.1c-1.6,0.4-3.3,1.3-3.2,2.7c0,1.3,1.1,1.9,2.6,1.8c1.3-0.1,2.7-0.8,4-1.7c0.7,1,1.7,2.1,3.7,2.1
			c2.4,0,5.2-1.5,5.2-3.8C63.8,26,63.2,25,61.5,25z M62.1,27.7c-0.1,1.9-1.3,3.1-3.5,3.1c-2.1,0-2.9-1.2-3.5-2
			c0.4-0.3,0.8-0.5,1.3-0.8c1.6-1,3.4-2.3,4.3-2.4C61.8,25.4,62.2,26.4,62.1,27.7z"/>
		<path class="st1" d="M64.4,13.1l-1.4-2.5l-1.3-0.3l1-0.9l0-2.9l-2.4-1.4l-1.3,0.4l0.4-1.3l-1.4-2.5l-2.7,0l-0.9,1l-0.3-1.3L51.8,0
			l-2.4,1.4l-0.3,1.3l-0.9-1l-2.7,0l-1.4,2.5l0.4,1.3l-1.3-0.4l-2.4,1.4l0,2.9l1,0.9l-1.3,0.3l-1.4,2.5l1.4,2.5l1.3,0.3l-1,0.9
			l0,2.9l2.4,1.4l1.3-0.4L44.1,22l1.4,2.5l2.7,0l0.9-1l0.3,1.3l2.2,1.3l0.2,0.1l0.5-0.3h0l0.2-0.1h0l1.7-1l0.3-1.3l0.9,1l2.7,0
			l1.4-2.5l-0.4-1.3l1.3,0.4l2.4-1.4l0-2.8l-1-0.9l1.3-0.3L64.4,13.1z M60.2,6.2l1.6,1l0,1.9L60.4,10l-2.8-0.4l1.1-2.7L60.2,6.2z
			 M56.8,16.8l0.9,2.4l-2.4-0.9l0.2-1.3L56.8,16.8z M56.8,9.5l-1.3-0.2l-0.2-1.4L57.7,7L56.8,9.5z M56.8,14.5l1.1-0.8l2,1.7
			l-2.5,0.4L56.8,14.5z M57.9,12.5l-1-0.8l0.5-1.3l2.5,0.4L57.9,12.5z M55.7,2.8l1.8,0l0.9,1.6l-0.7,1.5l-2.6,1.2l-0.3-2.9L55.7,2.8
			z M54.4,7.4l-1.2,0.5l-0.8-1.1l1.6-2L54.4,7.4z M50.2,2.1l1.6-0.9l1.6,0.9l0.1,1.7l-1.7,2.3l-1.7-2.3L50.2,2.1z M49.6,4.8l1.6,2
			l-0.8,1.1l-1.2-0.5L49.6,4.8z M46,2.8l1.8,0l0.9,1.4l-0.3,2.9l-2.6-1.2l-0.7-1.5L46,2.8z M48.1,16.9l0.2,1.4l-2.4,0.9l0.9-2.5
			l0,0.1L48.1,16.9z M45.7,13.7l1,0.8l-0.5,1.3l-2.5-0.4L45.7,13.7z M45.7,12.5l-2-1.7l2.5-0.4l0.5,1.2L45.7,12.5z M46.8,9.4L45.9,7
			l2.4,0.9l-0.2,1.3L46.8,9.4z M41.8,7.2l1.6-1l1.5,0.7L46,9.6L43.2,10l-1.4-0.9L41.8,7.2z M41.2,14.8l-0.9-1.6l0.9-1.6l1.6-0.1
			l2.3,1.8l-2.3,1.8L41.2,14.8z M43.4,20l-1.6-1l0-1.9l1.4-0.9l2.8,0.4l-1.1,2.7L43.4,20z M47.9,23.5l-1.8,0l-0.9-1.6l0.7-1.5
			l2.6-1.2l0.3,2.9L47.9,23.5z M49.2,18.9l1.2-0.5l0.8,1.1l0.1-0.1l-0.8-1.1l0.8,1.1l-0.1,0.1l-1.6,2L49.2,18.9z M53.4,24.2
			l-1.6,0.9l-1.6-0.9l-0.1-1.8l1.7-2.4l1.7,2.4L53.4,24.2z M54,21.5l-1.6-2l0.8-1.1l1.2,0.5L54,21.5z M54.4,15.8l-0.2,1.7l-1.5-0.7
			l-1,1.3l-1-1.3l-1.5,0.7l-0.2-1.7l-1.6-0.2l0.6-1.5l-1.3-1l1.3-1l-0.6-1.5l1.6-0.2l0.2-1.7l1.5,0.7l1-1.3l1,1.3l1.5-0.7l0.2,1.7
			l1.6,0.2l-0.6,1.5l1.3,1l-1.3,1l0.6,1.5L54.4,15.8z M58.5,21.9l-0.8-1.6l0,0l0.7,1.5l-0.9,1.6l-1.8,0l-0.9-1.4l0.3-2.9l2.6,1.2h0
			L58.5,21.9L58.5,21.9z M61.7,19.1l-1.6,1l-1.5-0.7l-1.1-2.7l2.8-0.4l1.4,0.9L61.7,19.1z M60.8,14.9l-2.3-1.8l2.3-1.8l1.6,0.1
			l0.9,1.6l-0.9,1.6L60.8,14.9z"/>
	</g>
</g>
</svg>
