<svg width="124" height="31" viewBox="0 0 124 31" fill="none" xmlns="http://www.w3.org/2000/svg">
<g clip-path="url(#clip0_193_3583)">
<path d="M20.6357 4.76133V21.2103C20.6357 22.225 20.8297 22.6605 21.2772 22.9234V23.1247H17.8084V22.9234C18.2281 22.6605 18.4499 22.2291 18.4499 21.2103V3.6891L10.7322 17.5582H10.4788L2.48387 4.90922V19.6451C2.48387 20.894 3.32335 22.4304 4.24599 22.9234V23.1247H0.5V22.9234C1.42264 22.4304 2.26212 20.894 2.26212 19.6451V4.61754L1.0029 2.81818H3.52134L11.5479 15.6684L18.6756 2.81818H21.2772V3.04823C20.8297 3.31115 20.6357 3.71375 20.6357 4.76133Z" fill="#231F20"/>
<path d="M36.4116 22.681H33.5883V18.6181C32.8597 21.1692 31.3232 22.8536 28.6385 22.8536C26.3457 22.8536 24.1084 21.7238 23.7441 19.6328C23.269 16.6749 24.9756 14.9331 27.1258 14.0046C26.3972 12.3203 27.2644 8.72568 31.0144 8.72568C33.3348 8.72568 35.7978 10.0033 35.7978 13.5692V20.7625C35.7978 21.7772 35.9919 22.2127 36.4116 22.4756V22.6769V22.681ZM33.5883 18.0963V13.6267C33.4497 13.5692 32.7765 13.3638 31.9093 13.3638C28.8602 13.3638 24.7222 14.929 25.926 20.0354C26.2903 21.6006 27.9099 22.5578 29.3077 22.4715C31.739 22.3277 33.026 20.1792 33.5843 18.0922L33.5883 18.0963ZM27.407 13.8896C28.9157 13.3104 30.5946 13.105 31.9093 13.105C32.5508 13.105 33.1131 13.22 33.5883 13.3679V13.1666C33.5883 10.9605 32.7488 9.01736 30.7649 9.01736C28.2465 9.01736 26.5715 11.5398 27.4109 13.8896H27.407Z" fill="#231F20"/>
<path d="M92.1263 18.5154C91.96 20.5735 90.1979 23.3013 86.2262 23.3013C82.2545 23.3013 78.6471 21.3294 78.5362 16.5435C78.3976 11.5233 82.7851 9.35011 85.8619 9.17346C88.2378 9.05843 91.5126 10.2457 91.9006 13.7581H89.299C90.8948 14.1936 92.3481 15.8779 92.1224 18.5154H92.1263ZM88.1546 13.7581H80.9121C80.5478 15.2946 80.631 17.0077 81.1061 18.4003C82.1397 21.4486 84.2384 22.7796 87.0894 22.6646C89.493 22.5496 91.5918 20.8365 91.8729 18.5729C92.2095 15.5575 90.2771 13.7581 88.1546 13.7581ZM80.9676 13.5281H89.889C89.5247 11.0057 87.3429 8.97216 84.6027 9.52265C82.702 9.9006 81.4705 11.5521 80.9676 13.5281Z" fill="#231F20"/>
<path d="M107.978 14.8879C108.172 22.0812 101.741 23.3014 98.6086 23.3014C97.1553 23.3014 96.0624 22.6646 95.5041 22.6934C95.1121 22.7221 94.9735 23.1001 94.918 23.3014H94.7517V4.44501C94.7517 3.4303 94.6686 3.13863 94.1102 3.05235V2.8223L96.7673 2.21429H96.9613V17.1268C97.4642 13.7623 98.8897 9.17759 102.806 9.17759C105.099 9.17759 107.894 11.207 107.978 14.892V14.8879ZM105.823 14.4812C105.685 11.9588 103.95 9.20224 101.574 9.69521C98.4146 10.332 96.9613 16.3956 96.9613 18.8358V22.87C97.0999 22.9275 97.7453 23.1617 98.6403 23.1329C101.325 23.1042 106.219 21.8841 105.827 14.4894L105.823 14.4812Z" fill="#231F20"/>
<path d="M110.199 5.45973C110.199 4.70383 110.785 4.09583 111.514 4.09583C112.242 4.09583 112.828 4.70383 112.828 5.45973C112.828 6.21562 112.242 6.82363 111.514 6.82363C110.785 6.82363 110.199 6.21562 110.199 5.45973Z" fill="#231F20"/>
<path d="M123.5 22.9234V23.1247H120.031V22.9234C120.479 22.6605 120.59 22.1675 120.506 21.2103C120.423 20.2531 120.003 15.348 119.865 13.8403C119.671 11.663 118.633 9.19814 116.23 9.69112C113.098 10.3279 112.512 16.3915 112.512 18.8317V21.2103C112.512 22.225 112.706 22.6605 113.153 22.9234V23.1247H109.684V22.9234C110.104 22.6605 110.298 22.2292 110.298 21.2103V11.4042C110.298 10.3895 110.215 10.0978 109.684 10.0116V9.81025L112.314 9.17349H112.508V16.3668C112.872 13.1173 113.822 9.17349 117.457 9.17349C119.75 9.17349 121.706 10.7962 122.043 14.2799C122.324 17.094 122.601 20.1422 122.712 21.2144C122.823 22.2579 123.076 22.6646 123.496 22.9275L123.5 22.9234Z" fill="#231F20"/>
<path d="M75.0476 9.1365C74.8813 9.12006 74.7071 9.11596 74.5249 9.11596C72.3787 9.13239 71.3927 11.3795 70.9096 13.9553C70.7314 14.7482 70.6245 15.5739 70.5453 16.3504L70.4503 2.18964H70.2285L67.6031 2.82229V3.05234C68.1654 3.13451 68.2486 3.42619 68.2565 4.4409L68.3713 21.2062C68.3713 21.6499 68.3397 21.9826 68.2605 22.2373C68.2526 22.2743 68.2367 22.3113 68.2248 22.3442C68.1615 22.5126 68.0783 22.6441 67.9675 22.7509C67.9279 22.7961 67.8764 22.833 67.8249 22.87C67.7972 22.8864 67.7695 22.9029 67.7417 22.9193C67.7417 22.9809 67.7417 23.1206 67.7417 23.1206L71.2105 23.1001C71.2105 23.1001 71.2105 22.9563 71.2105 22.8988C71.1828 22.8782 71.1591 22.8618 71.1353 22.8453C71.0838 22.8084 71.0403 22.7673 70.9967 22.7262C70.8938 22.6194 70.8066 22.4879 70.7393 22.3195C70.7274 22.2866 70.7156 22.2497 70.7037 22.2127C70.6284 21.958 70.5849 21.6252 70.5809 21.1816L70.573 20.0518C70.5651 18.8399 70.6364 16.412 71.0403 14.2018C71.2422 13.0803 71.5273 12.0081 71.9392 11.1865C72.2876 10.4799 72.7272 9.95812 73.2736 9.74039C73.3805 9.6952 73.4914 9.66234 73.6102 9.6418C73.7924 9.61304 73.9666 9.61715 74.1289 9.65412C75.301 9.90883 75.9267 11.7369 75.9821 13.1912L76.1801 13.3063L77.3443 11.5808L77.871 10.8003C77.0236 9.78969 76.2514 9.24331 75.0516 9.13239L75.0476 9.1365Z" fill="#231F20"/>
<path d="M61.505 24.9939C60.0795 25.0514 58.3451 26.5632 56.2741 27.8367C54.4843 28.9706 52.8647 30.1003 51.4392 30.0716C50.4017 30.0716 49.9265 29.3773 49.8711 28.4201C49.78 27.2903 50.6591 26.6043 51.7916 26.2428L52.2588 25.9634C52.0331 26.0045 51.8035 26.0538 51.5738 26.1113C49.9344 26.5345 48.3188 27.4218 48.3624 28.7939C48.3901 30.1291 49.5068 30.6796 50.9917 30.5645C52.3064 30.4783 53.7042 29.7224 54.9872 28.9131C55.6603 29.8703 56.6384 31 58.6539 31C61.0298 31 63.8255 29.5211 63.8255 27.2287C63.8255 25.9511 63.184 24.9651 61.505 24.9939ZM62.1188 27.7217C62.0079 29.6361 60.8041 30.8275 58.6539 30.7987C56.583 30.7699 55.7158 29.5786 55.1851 28.7652C55.6049 28.5064 56.0246 28.2434 56.4444 27.9846C58.0639 26.937 59.8538 25.6923 60.721 25.5773C61.8416 25.4006 62.1742 26.3866 62.1188 27.7217Z" fill="#231F20"/>
<path d="M64.4392 13.1214L63.081 10.6483L61.7822 10.3443L62.7603 9.41174L62.7444 6.5607L60.3725 5.12285L59.1054 5.53366L59.5013 4.21906L58.1154 1.75828L55.3713 1.74185L54.4684 2.75656L54.1793 1.4132L51.7916 0L49.4078 1.4132L49.1147 2.75656L48.2159 1.74185L45.4677 1.75828L44.0818 4.21906L44.4817 5.53366L43.2106 5.12285L40.8387 6.5607L40.8229 9.41174L41.8049 10.3443L40.5061 10.6483L39.1479 13.1214L40.5061 15.5945L41.8049 15.8985L40.8229 16.831L40.8387 19.6821L43.2106 21.1199L44.4817 20.7091L44.0818 22.0278L45.4677 24.4845L48.2159 24.5009L49.1147 23.4862L49.4078 24.8296L51.5738 26.1113L51.7916 26.2428L52.2588 25.9634H52.2628L52.441 25.8566H52.4449L54.1793 24.8296L54.4684 23.4862L55.3713 24.5009L58.1154 24.4845L59.5013 22.0278L59.1054 20.7091L60.3725 21.1199L62.7444 19.678L62.7603 16.831L61.7822 15.8985L63.081 15.5945L64.4392 13.1214ZM60.1706 6.20329L61.7466 7.16048L61.7584 9.05433L60.4042 9.9951L57.6006 9.6418L58.7094 6.94686L60.1706 6.20329ZM56.7968 16.7982L57.6957 19.2466L55.3277 18.31L55.4821 16.9625L56.7968 16.7982ZM56.7928 9.45693L55.494 9.29671L55.3396 7.9287L57.6996 6.99616L56.7928 9.45693ZM56.8403 14.5346L57.9016 13.713L59.8577 15.3644L57.3551 15.7835L56.8403 14.5346ZM57.8897 12.5421L56.8443 11.7287L57.367 10.4634L59.8577 10.8783L57.8897 12.5421ZM55.7158 2.78121L57.5412 2.79353L58.4639 4.42857L57.7432 5.94447L55.1455 7.09475L54.805 4.18619L55.7158 2.78121ZM54.3575 7.35357L53.1538 7.88762L52.3618 6.78664L53.9536 4.75311L54.3575 7.35357ZM50.2076 2.13212L51.7916 1.19547L53.3795 2.13212L53.4903 3.82057L51.7916 6.16631L50.0968 3.82057L50.2076 2.13212ZM49.6335 4.75311L51.2332 6.79486L50.4492 7.88352L49.2296 7.33713L49.6335 4.75311ZM46.0459 2.79353L47.8713 2.78121L48.7781 4.18619L48.4376 7.09475L45.84 5.94447L45.1232 4.42857L46.0459 2.79353ZM48.0931 16.9461L48.2475 18.3141L45.8875 19.2466L46.822 16.7037L46.7943 16.79L48.0931 16.9461ZM45.6934 13.7006L46.7388 14.514L46.2161 15.7794L43.7254 15.3644L45.6934 13.7006ZM45.6816 12.5339L43.7254 10.8783L46.228 10.4634L46.7468 11.7082L45.6816 12.5339ZM46.7864 9.44461L45.8875 6.99616L48.2594 7.93281L48.105 9.28028L46.7864 9.44461ZM41.8366 7.16048L43.4126 6.20329L44.8738 6.94686L45.9865 9.6418L43.179 9.9951L41.8247 9.05433L41.8366 7.16048ZM41.199 14.7646L40.2962 13.1214L41.199 11.474L42.8265 11.3631L45.0876 13.1214L42.8265 14.8797L41.199 14.7646ZM43.4126 20.0395L41.8366 19.0823L41.8247 17.1884L43.179 16.2477L45.9865 16.601L44.8738 19.2959L43.4126 20.0395ZM47.8713 23.4616L46.0459 23.4492L45.1232 21.8142L45.84 20.2983L48.4416 19.148L48.7781 22.0566L47.8713 23.4616ZM49.2296 18.8892L50.4294 18.3552L51.2253 19.4561L51.2847 19.3781L50.469 18.2442L51.2887 19.3781L51.2253 19.4561L49.6335 21.4897L49.2296 18.8892ZM53.3795 24.2339L51.7916 25.1706L50.2076 24.2339L50.0888 22.4345L51.7916 20.0806L53.4943 22.4345L53.3795 24.2339ZM53.9536 21.4897L52.3539 19.4479L53.1379 18.3634L54.3536 18.9056L53.9536 21.4897ZM54.3932 15.8204L54.2189 17.4801L52.7459 16.8064L51.7916 18.1539L50.8412 16.8105L49.3682 17.4801L49.19 15.8204L47.5902 15.6397L48.2396 14.1115L46.9408 13.1214L48.2396 12.1313L47.5902 10.6031L49.19 10.4223L49.3682 8.76266L50.8412 9.43639L51.7916 8.08892L52.7459 9.43639L54.2189 8.76266L54.3932 10.4223L55.9929 10.6031L55.3475 12.1313L56.6463 13.1214L55.3475 14.1115L55.9929 15.6397L54.3932 15.8204ZM58.5193 21.921L57.7551 20.3065L57.7432 20.2983L58.4599 21.8183L57.5412 23.4534L55.7118 23.4657L54.805 22.0607L55.1455 19.148L57.7432 20.2983H57.759L58.5233 21.921H58.5193ZM61.7466 19.0823L60.1706 20.0395L58.7094 19.2959L57.6006 16.601L60.4081 16.2477L61.7584 17.1884L61.7466 19.0823ZM60.7606 14.8797L58.4995 13.1214L60.7606 11.3631L62.3841 11.4781L63.2869 13.1214L62.3841 14.7688L60.7606 14.8797Z" fill="#231F20"/>
</g>
<defs>
<clipPath id="clip0_193_3583">
<rect width="123" height="31" fill="white" transform="translate(0.5)"/>
</clipPath>
</defs>
</svg>
