<svg id="Layer_1" data-name="Layer 1" xmlns="http://www.w3.org/2000/svg" viewBox="0 0 2727.57 2697.92"><path d="M20.1,4.8V21.2c0,1,.2,1.5.6,1.7v.2H17.2v-.2c.4-.3.6-.7.6-1.7V3.7L10.1,17.6H9.8L1.8,5V19.7A4.1,4.1,0,0,0,3.6,23v.2H0V23a4.24,4.24,0,0,0,1.8-3.3V4.7L.5,2.8H3l8,12.9L18.1,2.8h2.6V3C20.3,3.3,20.1,3.7,20.1,4.8Z" transform="translate(2604.57 0)"/><polygon points="2606.86 21.83 2606.04 21.98 2605.93 3.73 2606.68 4.1 2606.86 21.83"/><path d="M35.9,22.7H33.1V18.6c-.7,2.6-2.3,4.2-4.9,4.2-2.3,0-4.5-1.1-4.9-3.2-.5-3,1.2-4.7,3.4-5.6a4,4,0,0,1,2.48-5.08A4.06,4.06,0,0,1,30.6,8.7a4.49,4.49,0,0,1,4.8,4.16,3.42,3.42,0,0,1,0,.64v7.2c0,1,.2,1.5.6,1.7v.3Zm-2.8-4.6V13.6a3.83,3.83,0,0,0-1.7-.3c-3,0-7.2,1.6-6,6.7a3.3,3.3,0,0,0,3.4,2.4C31.2,22.3,32.5,20.2,33.1,18.1Zm-6.2-4.2a12.56,12.56,0,0,1,4.5-.8,4.69,4.69,0,0,1,1.7.3v-.2c0-2.2-.8-4.1-2.8-4.1a3.52,3.52,0,0,0-3.4,4.8Z" transform="translate(2604.57 0)"/><path d="M91.6,18.5c-.2,2.1-1.9,4.8-5.9,4.8s-7.6-2-7.7-6.8c-.1-5,4.2-7.2,7.3-7.4,2.4-.1,5.7,1.1,6,4.6H88.7A4.34,4.34,0,0,1,91.6,18.5Zm-3.9-4.7H80.5a7.93,7.93,0,0,0,.2,4.6,5.7,5.7,0,0,0,6,4.3,4.94,4.94,0,0,0,4.8-4.1C91.7,15.6,89.8,13.8,87.7,13.8Zm-7.2-.3h8.9c-.4-2.5-2.5-4.6-5.3-4A5.1,5.1,0,0,0,80.5,13.5Z" transform="translate(2604.57 0)"/><path d="M107.5,14.9c.2,7.2-6.2,8.4-9.4,8.4a18.06,18.06,0,0,1-3.1-.6c-.4,0-.5.4-.6.6h-.2V4.4c0-1-.1-1.3-.6-1.4V2.8l2.7-.6h.2V17.1c.5-3.4,1.9-7.9,5.8-7.9A5.54,5.54,0,0,1,107.5,14.9Zm-2.2-.4c-.1-2.5-1.9-5.3-4.2-4.8-3.2.6-4.6,6.7-4.6,9.1v4a3.83,3.83,0,0,0,1.7.3C100.8,23.1,105.7,21.9,105.3,14.5Z" transform="translate(2604.57 0)"/><path d="M109.7,5.5a1.3,1.3,0,0,1,2.6,0h0A1.35,1.35,0,0,1,111,6.9h0A1.5,1.5,0,0,1,109.7,5.5Z" transform="translate(2604.57 0)"/><path d="M123,22.9v.2h-3.5v-.2c.4-.3.6-.8.5-1.7s-.5-5.9-.6-7.4c-.2-2.2-1.2-4.6-3.6-4.1-3.1.6-3.7,6.7-3.7,9.1v2.4c0,1,.2,1.5.6,1.7v.2h-3.5v-.2c.4-.3.6-.7.6-1.7V11.4c0-1-.1-1.3-.6-1.4V9.8l2.6-.6h.2v7.2c.4-3.2,1.3-7.2,4.9-7.2,2.3,0,4.2,1.6,4.6,5.1.3,2.8.6,5.9.7,6.9S122.6,22.7,123,22.9Z" transform="translate(2604.57 0)"/><path d="M-2603.84,2697.19c-.28.29-.52.53-.73.73Z" transform="translate(2604.57 0)"/><path d="M-2600.24,2693.59q-1.94,1.95-3.15,3.15C-2602.59,2695.93-2601.55,2694.89-2600.24,2693.59Z" transform="translate(2604.57 0)"/><path d="M77.6,10.8l-.5.8-1.2,1.7-.2-.1c-.1-1.4-.7-3.2-1.9-3.5h-.5c-.1,0-.2.1-.3.1a2.55,2.55,0,0,0-1.3,1.4,12.07,12.07,0,0,0-.9,3,36.43,36.43,0,0,0-.5,5.8v1.1a3.07,3.07,0,0,0,.1,1v.1a1.31,1.31,0,0,0,.3.4l.2.4H67.4v-.2h.1l.1-.1c.2-.1.2-.2.3-.4v-.1a2.8,2.8,0,0,0,.1-1L67.9,4.4c-.1-1-.1-1.3-.7-1.4V2.8l2.6-.6H70V16.3a19.38,19.38,0,0,1,.4-2.4c.5-2.5,1.5-4.8,3.6-4.8h.5C75.8,9.2,76.5,9.8,77.6,10.8Z" transform="translate(2604.57 0)"/><path d="M61,25c-1.4.1-3.2,1.6-5.2,2.8C54,28.9,52.4,30.1,51,30c-1,0-1.5-.7-1.6-1.7s.8-1.8,1.9-2.2l.5-.3c-.2,0-.5.1-.7.1-1.6.4-3.3,1.3-3.2,2.7s1.1,1.9,2.6,1.8a8.66,8.66,0,0,0,4-1.7,4.24,4.24,0,0,0,3.7,2.1c2.4,0,5.2-1.5,5.2-3.8a2.12,2.12,0,0,0-2.24-2Zm.6,2.7c-.1,1.9-1.3,3.1-3.5,3.1a3.92,3.92,0,0,1-3.5-2,13.33,13.33,0,0,1,1.3-.8c1.6-1,3.4-2.3,4.3-2.4C61.3,25.4,61.7,26.4,61.6,27.7Z" transform="translate(2604.57 0)"/><path d="M63.9,13.1l-1.4-2.5-1.3-.3,1-.9V6.5L59.8,5.1l-1.3.4.4-1.3L57.5,1.7H54.8l-.9,1-.3-1.3L51.3,0,48.9,1.4l-.3,1.3-.9-1H45L43.6,4.2,44,5.5l-1.3-.4L40.3,6.5V9.4l1,.9-1.3.3-1.4,2.5L40,15.6l1.3.3-1,.9v2.9l2.4,1.4,1.3-.4L43.6,22,45,24.5h2.7l.9-1,.3,1.3,2.2,1.3.2.1.5-.3h0l.2-.1h0l1.7-1,.3-1.3.9,1h2.7L59,22l-.4-1.3,1.3.4,2.4-1.4V16.9l-1-.9,1.3-.3ZM59.7,6.2l1.6,1V9.1l-1.4.9-2.8-.4,1.1-2.7ZM56.3,16.8l.9,2.4-2.4-.9L55,17Zm0-7.3L55,9.3l-.2-1.4L57.2,7Zm0,5,1.1-.8,2,1.7-2.5.4Zm1.1-2-1-.8.5-1.3,2.5.4ZM55.2,2.8H57l.9,1.6-.7,1.5L54.6,7.1l-.3-2.9ZM53.9,7.4l-1.2.5-.8-1.1,1.6-2ZM49.7,2.1l1.6-.9,1.6.9L53,3.8,51.3,6.1,49.6,3.8Zm-.6,2.7,1.6,2-.8,1.1-1.2-.5Zm-3.6-2h1.8l.9,1.4-.3,2.9L45.3,5.9l-.7-1.5Zm2.1,14.1.2,1.4-2.4.9.9-2.5v.1Zm-2.4-3.2,1,.8-.5,1.3-2.5-.4Zm0-1.2-2-1.7,2.5-.4.5,1.2Zm1.1-3.1L45.4,7l2.4.9-.2,1.3Zm-5-2.2,1.6-1,1.5.7,1.1,2.7-2.8.4-1.4-.9Zm-.6,7.6-.9-1.6.9-1.6,1.6-.1,2.3,1.8-2.3,1.8ZM42.9,20l-1.6-1V17.1l1.4-.9,2.8.4-1.1,2.7Zm4.5,3.5H45.6l-.9-1.6.7-1.5L48,19.2l.3,2.9Zm1.3-4.6,1.2-.5.8,1.1.1-.1L50,18.3l.8,1.1-.1.1-1.6,2Zm4.2,5.3-1.6.9-1.6-.9-.1-1.8L51.3,20,53,22.4Zm.6-2.7-1.6-2,.8-1.1,1.2.5Zm.4-5.7-.2,1.7-1.5-.7-1,1.3-1-1.3-1.5.7-.2-1.7-1.6-.2.6-1.5-1.3-1,1.3-1-.6-1.5,1.6-.2.2-1.7,1.5.7,1-1.3,1,1.3,1.5-.7.2,1.7,1.6.2-.6,1.5,1.3,1-1.3,1,.6,1.5ZM58,21.9l-.8-1.6h0l.7,1.5L57,23.4H55.2L54.3,22l.3-2.9,2.6,1.2h0Zm3.2-2.8-1.6,1-1.5-.7L57,16.7l2.8-.4,1.4.9Zm-.9-4.2L58,13.1l2.3-1.8,1.6.1.9,1.6-.9,1.6Z" transform="translate(2604.57 0)"/></svg>