<svg id="Layer_1" data-name="Layer 1" xmlns="http://www.w3.org/2000/svg" viewBox="0 0 958.14 232.76"><defs><style>.cls-1{fill:#665445;}</style></defs><path id="M" class="cls-1" d="M182.78,40.83V39.08H162.52L107,135.58,44.46,39.08H24.85l9.8,13.51V165.43c0,9.36-6.53,20.91-13.72,24.61v1.53H50.12V190c-7.19-3.7-13.72-15.25-13.72-24.61V54.77l62.3,95h2L160.78,45.62V177.19c0,7.63-1.74,10.89-5,12.85v1.53h27V190c-3.48-2-5-5.22-5-12.85V53.68C177.77,45.84,179.3,42.79,182.78,40.83Z" transform="translate(-20.93 -17.92)"/><path id="A" class="cls-1" d="M295.9,173.86v-54c0-26.79-19.17-36.38-37.25-36.38-29.19,0-35.95,27-30.28,39.65-16.78,7-30.06,20-26.36,42.26,2.83,15.68,20.26,24.18,38.12,24.18,20.91,0,32.89-12.64,38.56-31.8v30.49h22v-1.52C297.42,184.75,295.9,181.48,295.9,173.86Zm-17.21-20.05c-4.36,15.69-14.38,31.81-33.33,32.9-10.89.65-23.53-6.54-26.36-18.3-9.37-38.34,22.87-50.1,46.62-50.1a41.47,41.47,0,0,1,13.07,2Zm0-35.5a45.87,45.87,0,0,0-13.07-2c-10.24,0-23.31,1.52-35.07,5.88-6.54-17.65,6.53-36.6,26.14-36.6,15.46,0,22,14.6,22,31.15Z" transform="translate(-20.93 -17.92)"/><path id="G" class="cls-1" d="M519,116.44,508.43,97.87l-10.12-2.28,7.62-7-.13-21.41-18.47-10.8-9.87,3.09,3.08-9.87-10.8-18.48L448.37,31l-7,7.61-2.25-10.08-18.6-10.61L401.91,28.53l-2.28,10.08-7-7.61-21.41.12L360.42,49.6l3.12,9.87-9.9-3.09-18.48,10.8L335,88.59l7.65,7-10.12,2.28L322,116.44,332.57,135l10.12,2.28-7.65,7,.12,21.41,18.48,10.8,9.9-3.09-3.12,9.9,10.8,18.45,21.41.12,7-7.61,2.28,10.08,15.55,8.87,1.32.76,1.7,1,3.64-2.09h0l1.39-.81h0l13.51-7.71,2.25-10.08,7,7.61,21.37-.12,10.8-18.45-3.08-9.9,9.87,3.09,18.47-10.83.13-21.38-7.62-7L508.43,135ZM485.75,64.49,498,71.68l.09,14.22L487.57,93l-21.84-2.66,8.64-20.23Zm-26.28,79.56,7,18.38-18.44-7,1.2-10.12Zm0-55.13-10.12-1.2-1.2-10.27,18.39-7Zm.37,38.13,8.27-6.17,15.24,12.4-19.5,3.15Zm8.18-15L459.84,106l4.07-9.5,19.41,3.12ZM451.05,38.8l14.22.09,7.19,12.28-5.62,11.38-20.23,8.64L444,49.35ZM440.47,73.13l-9.38,4-6.17-8.27,12.4-15.26Zm-32.33-39.2,12.34-7,12.37,7,.87,12.67L420.48,64.22,407.28,46.6Zm-4.47,19.68,12.46,15.33L410,77.11,400.52,73ZM375.72,38.89l14.22-.09L397,49.35l-2.65,21.84-20.24-8.64-5.58-11.38Zm15.95,106.27,1.2,10.27-18.38,7,7.28-19.09-.22.65ZM373,120.79l8.14,6.11-4.07,9.5-19.4-3.12Zm-.09-8.76L357.65,99.6l19.49-3.12,4,9.35Zm8.6-23.2-7-18.38,18.48,7v0L391.76,87.6ZM342.93,71.68l12.28-7.19,11.38,5.59,8.67,20.23L353.39,93,342.84,85.9Zm-5,57.1-7-12.34,7-12.37,12.68-.83,17.61,13.2-17.61,13.2Zm17.24,39.61-12.28-7.19L342.84,147l10.55-7.07,21.87,2.66-8.67,20.23Zm34.73,25.69L375.72,194l-7.18-12.28,5.58-11.38,20.27-8.64L397,183.53Zm10.58-34.33,9.35-4,6.2,8.27.46-.59-6.35-8.51,6.38,8.51-.49.59-12.4,15.26Zm32.33,40.13-12.37,7-12.34-7-.92-13.51,13.26-17.68,13.27,17.68Zm4.47-20.61-12.46-15.33L431,155.8l9.47,4.07Zm3.43-42.56-1.36,12.46-11.47-5.06-7.44,10.12-7.4-10.09-11.48,5-1.38-12.46-12.47-1.36,5.06-11.48-10.11-7.43L392.81,109l-5.06-11.48,12.47-1.36,1.38-12.46,11.48,5.06,7.4-10.12,7.44,10.12,11.47-5.06,1.36,12.46,12.46,1.36-5,11.48,10.12,7.43-10.12,7.43,5,11.48Zm32.14,45.8-5.95-12.12-.1-.06,5.59,11.41L465.27,194l-14.25.09L444,183.56l2.65-21.87,20.23,8.64.13,0,5.95,12.15ZM498,161.2l-12.28,7.19-11.38-5.59-8.64-20.23,21.87-2.66L498.12,147Zm-7.68-31.56-17.61-13.2,17.61-13.2,12.65.86,7,12.34-7,12.37Z" transform="translate(-20.93 -17.92)"/><path id="G_tail" data-name="G tail" class="cls-1" d="M496.15,205.59c-11.11.43-24.62,11.78-40.75,21.34-13.94,8.52-26.56,17-37.66,16.78-8.08,0-11.79-5.21-12.22-12.4-.67-8,4.6-11.59,13.46-15.67l1.5-.68-1.7-1c-.53.14-1.07.27-1.6.42-12.2,3.32-23.74,9.85-23.41,19.72s8.91,14.16,20.48,13.29c10.24-.64,21.13-6.32,31.13-12.4,5.24,7.19,12.86,15.67,28.56,15.67,18.51,0,40.28-11.1,40.28-28.31C514.22,212.77,509.23,205.37,496.15,205.59Zm4.78,20.48c-.86,14.37-10.24,23.32-27,23.1-16.13-.21-22.89-9.16-27-15.27,3.27-1.94,6.54-3.91,9.81-5.86,12.61-7.86,26.56-17.21,33.31-18.07C498.77,208.64,501.36,216,500.93,226.07Z" transform="translate(-20.93 -17.92)"/><path id="HR" class="cls-1" d="M601.63,86.53c-1.29-.11-2.65-.16-4.07-.15-16.72.11-24.4,17-28.15,36.32a149.16,149.16,0,0,0-2.84,18l-.75-106.32h-1.73L543.64,39.1v1.73c4.36.61,5,2.8,5.08,10.42l.89,125.88a25,25,0,0,1-.87,7.75,5.77,5.77,0,0,1-.27.8,8.11,8.11,0,0,1-2,3.07,6.15,6.15,0,0,1-1.1.9l-.65.38v0l0,1.48v0l27-.19v-1.54l-.59-.37a8.35,8.35,0,0,1-3.09-3.93c-.09-.24-.18-.52-.28-.8a27,27,0,0,1-.95-7.73l-.06-8.49c-.06-9.09.49-27.33,3.64-43.92,1.57-8.43,3.8-16.47,7-22.63,2.71-5.29,6.14-9.23,10.38-10.87a11.68,11.68,0,0,1,6.66-.63c9.15,1.91,14,15.63,14.44,26.55l1.55.85,9.07-13,4.09-5.86C617,91.45,611,87.36,601.63,86.53Z" transform="translate(-20.93 -17.92)"/><path id="E" class="cls-1" d="M712.67,121.21h20.26c-3-26.36-28.54-35.29-47-34.42-24,1.31-58.16,17.64-57.08,55.33.88,35.94,29.85,50.75,59.91,50.75,30.93,0,44.66-20.47,46-35.94C736.42,137.11,725.09,124.47,712.67,121.21ZM676.07,89.4c21.35-4.14,38.34,11.11,41.18,30.06H647.76C651.68,104.65,661.26,92.23,676.07,89.4Zm56.64,68c-2.18,17-18.51,29.84-37.25,30.71-22.22.87-38.55-9.15-46.61-32a62.85,62.85,0,0,1-1.53-34.85h56.42C720.3,121.21,735.33,134.71,732.71,157.37Z" transform="translate(-20.93 -17.92)"/><path id="B" class="cls-1" d="M858.18,129.7c-.66-27.66-22.44-42.91-40.3-42.91-30.5,0-41.61,34.42-45.53,59.69v-112h-1.52l-20.7,4.57v1.75c4.36.65,5,2.83,5,10.45V192.87h1.31c.43-1.52,1.52-4.35,4.57-4.57,4.36-.22,12.86,4.57,24.18,4.57C809.6,192.87,859.7,183.73,858.18,129.7Zm-72.76,61.87a34.74,34.74,0,0,1-13.07-2V159.33c0-18.3,11.33-63.83,35.94-68.62,18.52-3.7,32,17,33.11,35.94C844.45,182.2,806.33,191.35,785.42,191.57Z" transform="translate(-20.93 -17.92)"/><g id="IN"><path class="cls-1" d="M875.46,58.91A10.24,10.24,0,1,1,885.7,69.14,10.22,10.22,0,0,1,875.46,58.91Z" transform="translate(-20.93 -17.92)"/><path class="cls-1" d="M979.07,190v1.53h-27V190c3.48-2,4.35-5.66,3.7-12.85s-3.92-44-5-55.33c-1.52-16.34-9.58-34.85-28.32-31.15-24.4,4.79-29,50.32-29,68.62v17.86c0,7.63,1.53,10.89,5,12.85v1.53h-27V190c3.27-2,4.79-5.22,4.79-12.85V103.56c0-7.62-.65-9.8-4.79-10.45V91.58l20.48-4.79h1.52v54c2.83-24.4,10.24-54,38.56-54,17.86,0,33.11,12.2,35.72,38.34,2.18,21.13,4.36,44,5.23,52.06C973.84,185,975.8,188.08,979.07,190Z" transform="translate(-20.93 -17.92)"/></g></svg>