<svg width="26" height="27" viewBox="0 0 26 27" fill="none" xmlns="http://www.w3.org/2000/svg">
<path d="M13 26.7163C10.4288 26.7163 7.91543 25.9538 5.77759 24.5254C3.63975 23.0969 1.97351 21.0666 0.989572 18.6911C0.0056327 16.3157 -0.251811 13.7018 0.249797 11.1801C0.751405 8.65833 1.98953 6.34195 3.80762 4.52387C5.6257 2.70578 7.94208 1.46765 10.4638 0.966045C12.9856 0.464437 15.5995 0.72188 17.9749 1.70582C20.3503 2.68976 22.3807 4.356 23.8091 6.49384C25.2376 8.63168 26 11.1451 26 13.7163C26 17.1641 24.6304 20.4707 22.1924 22.9086C19.7544 25.3466 16.4478 26.7163 13 26.7163ZM13 2.71625C10.8244 2.71625 8.69767 3.36139 6.88873 4.57009C5.07979 5.77878 3.66989 7.49675 2.83733 9.50674C2.00477 11.5167 1.78693 13.7285 2.21137 15.8622C2.63581 17.996 3.68345 19.9561 5.22183 21.4944C6.76021 23.0328 8.72022 24.0805 10.854 24.5049C12.9878 24.9293 15.1995 24.7115 17.2095 23.8789C19.2195 23.0464 20.9375 21.6365 22.1462 19.8275C23.3549 18.0186 24 15.8918 24 13.7163C24 10.7989 22.8411 8.00098 20.7782 5.93808C18.7153 3.87518 15.9174 2.71625 13 2.71625Z" fill="black"/>
<path d="M13 14.7163C12.0111 14.7163 11.0444 14.423 10.2222 13.8736C9.39991 13.3242 8.75905 12.5433 8.38061 11.6297C8.00217 10.716 7.90315 9.71071 8.09608 8.7408C8.28901 7.7709 8.76521 6.87998 9.46447 6.18072C10.1637 5.48146 11.0546 5.00525 12.0246 4.81233C12.9945 4.6194 13.9998 4.71842 14.9134 5.09686C15.8271 5.47529 16.6079 6.11616 17.1574 6.9384C17.7068 7.76065 18 8.72735 18 9.71625C18 11.0423 17.4732 12.3141 16.5355 13.2518C15.5979 14.1895 14.3261 14.7163 13 14.7163ZM13 6.71625C12.4067 6.71625 11.8266 6.8922 11.3333 7.22184C10.8399 7.55149 10.4554 8.02002 10.2284 8.5682C10.0013 9.11638 9.94189 9.71958 10.0576 10.3015C10.1734 10.8835 10.4591 11.418 10.8787 11.8376C11.2982 12.2571 11.8328 12.5429 12.4147 12.6586C12.9967 12.7744 13.5999 12.715 14.1481 12.4879C14.6962 12.2608 15.1648 11.8763 15.4944 11.383C15.8241 10.8896 16 10.3096 16 9.71625C16 8.9206 15.6839 8.15754 15.1213 7.59493C14.5587 7.03232 13.7957 6.71625 13 6.71625Z" fill="black"/>
<path d="M22.55 21.7163C22.4112 21.7172 22.2737 21.6892 22.1463 21.6341C22.0189 21.579 21.9044 21.498 21.81 21.3963C20.7486 20.2385 19.4584 19.3136 18.0211 18.6802C16.5838 18.0467 15.0307 17.7185 13.46 17.7163H12.54C9.61221 17.7099 6.79687 18.8432 4.69001 20.8763C4.49534 21.0369 4.24714 21.118 3.99519 21.1032C3.74325 21.0885 3.50618 20.9791 3.33156 20.7968C3.15694 20.6146 3.05767 20.3731 3.05368 20.1208C3.04968 19.8684 3.14124 19.6239 3.31001 19.4363C5.78588 17.0432 9.09666 15.7088 12.54 15.7163H13.46C15.3062 15.7204 17.1316 16.1064 18.8216 16.8498C20.5115 17.5932 22.0294 18.6781 23.28 20.0363C23.4121 20.1787 23.4999 20.3566 23.5326 20.5481C23.5652 20.7397 23.5414 20.9366 23.464 21.1148C23.3865 21.293 23.2588 21.4448 23.0965 21.5516C22.9342 21.6584 22.7443 21.7156 22.55 21.7163Z" fill="black"/>
</svg>
