<?xml version="1.0" encoding="UTF-8"?>
<svg id="Layer_1" data-name="Layer 1" xmlns="http://www.w3.org/2000/svg" viewBox="0 0 25.09 25.03">
  <defs>
    <style>
      .cls-1 {
        fill: #2b2b2b;
      }
    </style>
  </defs>
  <g id="user">
    <path class="cls-1" d="m22.95,5.56c-1.38-2.06-3.33-3.67-5.61-4.61C15.05,0,12.54-.24,10.11.24c-2.43.48-4.66,1.68-6.41,3.43S.75,7.64.27,10.07c-.48,2.44-.23,4.95.71,7.24.95,2.28,2.55,4.24,4.61,5.61,2.06,1.38,4.48,2.11,6.95,2.11,3.32,0,6.51-1.32,8.86-3.67,2.34-2.35,3.66-5.53,3.66-8.85,0-2.47-.73-4.89-2.11-6.95ZM3.41,17.85c-.6-1-1.02-2.11-1.25-3.26-.4-2.06-.19-4.19.61-6.12.8-1.93,2.16-3.59,3.9-4.76,1.74-1.16,3.79-1.78,5.88-1.78,2.81,0,5.51,1.12,7.49,3.1s3.1,4.68,3.1,7.49c0,1.89-.5,3.73-1.44,5.34-1.04-.97-2.24-1.75-3.54-2.33-1.63-.71-3.38-1.09-5.16-1.09h-.89c-3.22,0-6.32,1.21-8.69,3.41Zm13.19,4.45c-1.93.81-4.06,1.01-6.11.61-2.06-.41-3.95-1.42-5.43-2.9-.18-.18-.37-.38-.53-.58l.02-.02c2.03-1.95,4.75-3.05,7.56-3.04h.89c1.51,0,3.01.32,4.39.92,1.18.53,2.25,1.24,3.18,2.15-1.07,1.25-2.43,2.22-3.96,2.86Z"/>
    <path class="cls-1" d="m12.55,13.48c-.95,0-1.88-.28-2.67-.81-.79-.53-1.41-1.28-1.77-2.16-.36-.88-.46-1.85-.27-2.78.19-.93.64-1.79,1.32-2.46.67-.67,1.53-1.13,2.46-1.32.93-.19,1.9-.09,2.78.27.88.36,1.63.98,2.16,1.77.53.79.81,1.72.81,2.67,0,1.28-.51,2.5-1.41,3.4-.9.9-2.13,1.41-3.4,1.41Zm0-7.7c-.57,0-1.13.17-1.6.49-.47.32-.85.77-1.06,1.3-.22.53-.28,1.11-.16,1.67.11.56.39,1.07.79,1.48.4.4.92.68,1.48.79.56.11,1.14.05,1.67-.16.53-.22.98-.59,1.3-1.06.32-.47.49-1.03.49-1.6,0-.77-.3-1.5-.85-2.04s-1.28-.85-2.04-.85Z"/>
  </g>
</svg>