<svg width="26" height="27" viewBox="0 0 26 27" fill="none" xmlns="http://www.w3.org/2000/svg">
<path d="M25.4392 13.1214L24.081 10.6483L22.7822 10.3443L23.7603 9.41174L23.7444 6.5607L21.3725 5.12285L20.1054 5.53366L20.5013 4.21906L19.1154 1.75828L16.3713 1.74185L15.4684 2.75656L15.1793 1.4132L12.7916 0L10.4078 1.4132L10.1147 2.75656L9.21585 1.74185L6.46773 1.75828L5.0818 4.21906L5.48174 5.53366L4.21064 5.12285L1.8387 6.5607L1.82286 9.41174L2.8049 10.3443L1.50608 10.6483L0.147858 13.1214L1.50608 15.5945L2.8049 15.8985L1.82286 16.831L1.8387 19.6821L4.21064 21.1199L5.48174 20.7091L5.0818 22.0278L6.46773 24.4845L9.21585 24.5009L10.1147 23.4862L10.4078 24.8296L12.5738 26.1113L12.7916 26.2428L13.2588 25.9634H13.2628L13.441 25.8566H13.4449L15.1793 24.8296L15.4684 23.4862L16.3713 24.5009L19.1154 24.4845L20.5013 22.0278L20.1054 20.7091L21.3725 21.1199L23.7444 19.678L23.7603 16.831L22.7822 15.8985L24.081 15.5945L25.4392 13.1214ZM21.1706 6.20329L22.7466 7.16048L22.7584 9.05433L21.4042 9.9951L18.6006 9.6418L19.7094 6.94686L21.1706 6.20329ZM17.7968 16.7982L18.6957 19.2466L16.3277 18.31L16.4821 16.9625L17.7968 16.7982ZM17.7928 9.45693L16.494 9.29671L16.3396 7.9287L18.6996 6.99616L17.7928 9.45693ZM17.8403 14.5346L18.9016 13.713L20.8577 15.3644L18.3551 15.7835L17.8403 14.5346ZM18.8897 12.5421L17.8443 11.7287L18.367 10.4634L20.8577 10.8783L18.8897 12.5421ZM16.7158 2.78121L18.5412 2.79353L19.4639 4.42857L18.7432 5.94447L16.1455 7.09475L15.805 4.18619L16.7158 2.78121ZM15.3575 7.35357L14.1538 7.88762L13.3618 6.78664L14.9536 4.75311L15.3575 7.35357ZM11.2076 2.13212L12.7916 1.19547L14.3795 2.13212L14.4903 3.82057L12.7916 6.16631L11.0968 3.82057L11.2076 2.13212ZM10.6335 4.75311L12.2332 6.79486L11.4492 7.88352L10.2296 7.33713L10.6335 4.75311ZM7.04587 2.79353L8.87135 2.78121L9.77815 4.18619L9.4376 7.09475L6.83996 5.94447L6.12323 4.42857L7.04587 2.79353ZM9.0931 16.9461L9.24753 18.3141L6.88748 19.2466L7.822 16.7037L7.79428 16.79L9.0931 16.9461ZM6.69344 13.7006L7.73884 14.514L7.21614 15.7794L4.72541 15.3644L6.69344 13.7006ZM6.68156 12.5339L4.72541 10.8783L7.22802 10.4634L7.74676 11.7082L6.68156 12.5339ZM7.78636 9.44461L6.88748 6.99616L9.25941 7.93281L9.10498 9.28028L7.78636 9.44461ZM2.83658 7.16048L4.41259 6.20329L5.87376 6.94686L6.98647 9.6418L4.17896 9.9951L2.8247 9.05433L2.83658 7.16048ZM2.19905 14.7646L1.29621 13.1214L2.19905 11.474L3.82653 11.3631L6.08759 13.1214L3.82653 14.8797L2.19905 14.7646ZM4.41259 20.0395L2.83658 19.0823L2.8247 17.1884L4.17896 16.2477L6.98647 16.601L5.87376 19.2959L4.41259 20.0395ZM8.87135 23.4616L7.04587 23.4492L6.12323 21.8142L6.83996 20.2983L9.44156 19.148L9.77815 22.0566L8.87135 23.4616ZM10.2296 18.8892L11.4294 18.3552L12.2253 19.4561L12.2847 19.3781L11.469 18.2442L12.2887 19.3781L12.2253 19.4561L10.6335 21.4897L10.2296 18.8892ZM14.3795 24.2339L12.7916 25.1706L11.2076 24.2339L11.0888 22.4345L12.7916 20.0806L14.4943 22.4345L14.3795 24.2339ZM14.9536 21.4897L13.3539 19.4479L14.1379 18.3634L15.3536 18.9056L14.9536 21.4897ZM15.3932 15.8204L15.2189 17.4801L13.7459 16.8064L12.7916 18.1539L11.8412 16.8105L10.3682 17.4801L10.19 15.8204L8.5902 15.6397L9.23961 14.1115L7.94079 13.1214L9.23961 12.1313L8.5902 10.6031L10.19 10.4223L10.3682 8.76266L11.8412 9.43639L12.7916 8.08892L13.7459 9.43639L15.2189 8.76266L15.3932 10.4223L16.9929 10.6031L16.3475 12.1313L17.6463 13.1214L16.3475 14.1115L16.9929 15.6397L15.3932 15.8204ZM19.5193 21.921L18.7551 20.3065L18.7432 20.2983L19.4599 21.8183L18.5412 23.4534L16.7118 23.4657L15.805 22.0607L16.1455 19.148L18.7432 20.2983H18.759L19.5233 21.921H19.5193ZM22.7466 19.0823L21.1706 20.0395L19.7094 19.2959L18.6006 16.601L21.4081 16.2477L22.7584 17.1884L22.7466 19.0823ZM21.7606 14.8797L19.4995 13.1214L21.7606 11.3631L23.3841 11.4781L24.2869 13.1214L23.3841 14.7688L21.7606 14.8797Z" fill="white"/>
</svg>
