<svg width="20" height="20" viewBox="0 0 20 20" fill="none" xmlns="http://www.w3.org/2000/svg">
<path d="M9.53969 0.848633C4.30559 0.848633 0.0625 5.01018 0.0625 10.142C0.0625 15.2746 4.30559 19.4347 9.53969 19.4347C14.7738 19.4347 19.0161 15.2746 19.0161 10.142C19.0161 5.01018 14.7734 0.848633 9.53969 0.848633ZM14.3135 8.26825C14.3185 8.36864 14.3204 8.4694 14.3204 8.5713C14.3204 11.6663 11.9181 15.2346 7.52533 15.2346C6.17678 15.2346 4.92098 14.847 3.86415 14.1828C4.05119 14.2043 4.24093 14.2153 4.43375 14.2153C5.55292 14.2153 6.58281 13.8409 7.39987 13.2129C6.35497 13.1936 5.47325 12.5162 5.16921 11.5859C5.31469 11.6139 5.4644 11.6278 5.61835 11.6278C5.83618 11.6278 6.04708 11.5999 6.24759 11.5459C5.15459 11.3308 4.33137 10.3836 4.33137 9.24986C4.33137 9.23967 4.33137 9.22985 4.33176 9.21966C4.6535 9.39515 5.02181 9.50045 5.4136 9.5129C4.77242 9.0921 4.351 8.37618 4.351 7.56327C4.351 7.13417 4.46877 6.73149 4.67428 6.38579C5.85234 7.80254 7.61231 8.73509 9.59742 8.83246C9.55662 8.6615 9.53546 8.48223 9.53546 8.29882C9.53546 7.00586 10.6046 5.95707 11.9239 5.95707C12.6109 5.95707 13.2313 6.24163 13.6669 6.69639C14.2111 6.59185 14.7222 6.39636 15.1837 6.12803C15.0047 6.67526 14.6264 7.13417 14.133 7.42364C14.6168 7.36703 15.0771 7.24097 15.505 7.05492C15.1856 7.52553 14.7803 7.93803 14.3135 8.26825Z" fill="black"/>
</svg>
