<svg width="27" height="27" viewBox="0 0 27 27" fill="none" xmlns="http://www.w3.org/2000/svg">
<path d="M26.106 13.1214L24.7477 10.6483L23.4489 10.3443L24.427 9.41174L24.4112 6.5607L22.0392 5.12285L20.7721 5.53366L21.1681 4.21906L19.7821 1.75828L17.038 1.74185L16.1351 2.75656L15.8461 1.4132L13.4583 0L11.0745 1.4132L10.7814 2.75656L9.88257 1.74185L7.13445 1.75828L5.74851 4.21906L6.14846 5.53366L4.87735 5.12285L2.50542 6.5607L2.48958 9.41174L3.47162 10.3443L2.17279 10.6483L0.814575 13.1214L2.17279 15.5945L3.47162 15.8985L2.48958 16.831L2.50542 19.6821L4.87735 21.1199L6.14846 20.7091L5.74851 22.0278L7.13445 24.4845L9.88257 24.5009L10.7814 23.4862L11.0745 24.8296L13.2405 26.1113L13.4583 26.2428L13.9256 25.9634H13.9295L14.1077 25.8566H14.1117L15.8461 24.8296L16.1351 23.4862L17.038 24.5009L19.7821 24.4845L21.1681 22.0278L20.7721 20.7091L22.0392 21.1199L24.4112 19.678L24.427 16.831L23.4489 15.8985L24.7477 15.5945L26.106 13.1214ZM21.8373 6.20329L23.4133 7.16048L23.4252 9.05433L22.0709 9.9951L19.2673 9.6418L20.3761 6.94686L21.8373 6.20329ZM18.4635 16.7982L19.3624 19.2466L16.9944 18.31L17.1488 16.9625L18.4635 16.7982ZM18.4595 9.45693L17.1607 9.29671L17.0063 7.9287L19.3663 6.99616L18.4595 9.45693ZM18.5071 14.5346L19.5683 13.713L21.5244 15.3644L19.0218 15.7835L18.5071 14.5346ZM19.5564 12.5421L18.511 11.7287L19.0337 10.4634L21.5244 10.8783L19.5564 12.5421ZM17.3825 2.78121L19.208 2.79353L20.1306 4.42857L19.4099 5.94447L16.8123 7.09475L16.4717 4.18619L17.3825 2.78121ZM16.0243 7.35357L14.8205 7.88762L14.0285 6.78664L15.6204 4.75311L16.0243 7.35357ZM11.8744 2.13212L13.4583 1.19547L15.0462 2.13212L15.1571 3.82057L13.4583 6.16631L11.7635 3.82057L11.8744 2.13212ZM11.3002 4.75311L12.9 6.79486L12.1159 7.88352L10.8963 7.33713L11.3002 4.75311ZM7.71259 2.79353L9.53806 2.78121L10.4449 4.18619L10.1043 7.09475L7.50668 5.94447L6.78995 4.42857L7.71259 2.79353ZM9.75982 16.9461L9.91425 18.3141L7.55419 19.2466L8.48871 16.7037L8.46099 16.79L9.75982 16.9461ZM7.36016 13.7006L8.40555 14.514L7.88286 15.7794L5.39213 15.3644L7.36016 13.7006ZM7.34828 12.5339L5.39213 10.8783L7.89474 10.4634L8.41348 11.7082L7.34828 12.5339ZM8.45307 9.44461L7.55419 6.99616L9.92613 7.93281L9.77169 9.28028L8.45307 9.44461ZM3.50329 7.16048L5.07931 6.20329L6.54048 6.94686L7.65319 9.6418L4.84567 9.9951L3.49142 9.05433L3.50329 7.16048ZM2.86576 14.7646L1.96292 13.1214L2.86576 11.474L4.49325 11.3631L6.75431 13.1214L4.49325 14.8797L2.86576 14.7646ZM5.07931 20.0395L3.50329 19.0823L3.49142 17.1884L4.84567 16.2477L7.65319 16.601L6.54048 19.2959L5.07931 20.0395ZM9.53806 23.4616L7.71259 23.4492L6.78995 21.8142L7.50668 20.2983L10.1083 19.148L10.4449 22.0566L9.53806 23.4616ZM10.8963 18.8892L12.0961 18.3552L12.892 19.4561L12.9514 19.3781L12.1357 18.2442L12.9554 19.3781L12.892 19.4561L11.3002 21.4897L10.8963 18.8892ZM15.0462 24.2339L13.4583 25.1706L11.8744 24.2339L11.7556 22.4345L13.4583 20.0806L15.161 22.4345L15.0462 24.2339ZM15.6204 21.4897L14.0206 19.4479L14.8046 18.3634L16.0203 18.9056L15.6204 21.4897ZM16.0599 15.8204L15.8857 17.4801L14.4126 16.8064L13.4583 18.1539L12.5079 16.8105L11.0349 17.4801L10.8567 15.8204L9.25692 15.6397L9.90633 14.1115L8.60751 13.1214L9.90633 12.1313L9.25692 10.6031L10.8567 10.4223L11.0349 8.76266L12.5079 9.43639L13.4583 8.08892L14.4126 9.43639L15.8857 8.76266L16.0599 10.4223L17.6597 10.6031L17.0142 12.1313L18.313 13.1214L17.0142 14.1115L17.6597 15.6397L16.0599 15.8204ZM20.186 21.921L19.4218 20.3065L19.4099 20.2983L20.1266 21.8183L19.208 23.4534L17.3785 23.4657L16.4717 22.0607L16.8123 19.148L19.4099 20.2983H19.4257L20.19 21.921H20.186ZM23.4133 19.0823L21.8373 20.0395L20.3761 19.2959L19.2673 16.601L22.0749 16.2477L23.4252 17.1884L23.4133 19.0823ZM22.4273 14.8797L20.1662 13.1214L22.4273 11.3631L24.0508 11.4781L24.9537 13.1214L24.0508 14.7688L22.4273 14.8797Z" fill="white"/>
</svg>
