<svg id="Layer_1" data-name="Layer 1" xmlns="http://www.w3.org/2000/svg" viewBox="0 0 30 30"><defs><style>.cls-1{fill:#fff;}</style></defs><path id="G" class="cls-1" d="M27.37,12.76,26,10.42l-1.27-.28,1-.88,0-2.69L23.39,5.21l-1.24.39.39-1.24L21.18,2H18.5l-.88,1-.29-1.26L15,.38,12.67,1.72,12.38,3,11.5,2H8.81L7.45,4.36l.4,1.24L6.6,5.21,4.28,6.57V9.26l1,.88L4,10.42,2.63,12.76,4,15.09l1.27.29-1,.87v2.69L6.6,20.3l1.25-.39-.4,1.25,1.36,2.31,2.69,0,.88-1,.29,1.27,1.95,1.11.16.1.22.12.45-.26h0l.17-.1h0l1.69-1,.29-1.27.88,1,2.68,0,1.36-2.31-.39-1.25,1.24.39,2.32-1.36,0-2.69-1-.87L26,15.09ZM23.19,6.23l1.55.91V8.92l-1.33.89-2.74-.33,1.09-2.55Zm-3.3,10,.88,2.31-2.31-.88.15-1.27Zm0-6.92-1.27-.15-.15-1.29L20.78,7Zm.05,4.79,1-.78,1.91,1.56-2.45.4Zm1-1.88-1-.77.51-1.19,2.44.39ZM18.84,3h1.78l.91,1.54L20.82,6,18.28,7.07,18,4.33ZM17.51,7.32l-1.18.5-.77-1,1.55-1.91ZM13.45,2.39,15,1.51l1.55.88L16.66,4,15,6.2,13.34,4Zm-.56,2.48,1.56,1.92-.76,1-1.2-.52ZM9.38,3h1.78l.89,1.32-.33,2.74L9.18,6,8.47,4.56Zm2,13.34.15,1.29-2.31.88.92-2.39,0,.08ZM9,13.3l1,.77-.51,1.19-2.43-.39Zm0-1.1L7.11,10.64l2.44-.39.51,1.17ZM10.1,9.29,9.22,7l2.32.88h0l-.15,1.27ZM5.26,7.14,6.8,6.23l1.43.7L9.32,9.48l-2.75.33L5.25,8.92Zm-.62,7.17-.89-1.55.89-1.56,1.59-.1,2.21,1.66L6.23,14.41Zm2.16,5-1.54-.9V16.59l1.32-.89L9.32,16,8.23,18.58Zm4.36,3.23H9.38L8.47,21l.71-1.43,2.54-1.08.33,2.74Zm1.33-4.31,1.18-.51.77,1,.06-.07-.8-1.07.81,1.07-.07.07-1.55,1.92Zm4.06,5L15,24.12l-1.55-.88-.12-1.7L15,19.32l1.66,2.22Zm.56-2.59-1.56-1.93.76-1,1.19.51Zm.43-5.35-.17,1.57-1.44-.64L15,17.5l-.93-1.26-1.44.63-.18-1.57-1.56-.17.63-1.44-1.27-.93,1.27-.94-.63-1.44,1.56-.17.18-1.56,1.44.63L15,8l.93,1.27,1.44-.63.17,1.56,1.57.17-.63,1.44,1.27.94-1.27.93.63,1.44Zm4,5.75-.75-1.52h0l.7,1.44-.9,1.54H18.83L18,21.19l.33-2.75,2.54,1.08h0l.74,1.52Zm3.16-2.67-1.55.9-1.42-.7L20.68,16l2.75-.34,1.32.89Zm-1-4-2.21-1.65,2.21-1.66,1.59.11.88,1.55-.88,1.55Z"/><path id="G_tail" data-name="G tail" class="cls-1" d="M24.5,24c-1.39.06-3.09,1.48-5.12,2.68-1.75,1.07-3.33,2.14-4.73,2.11a1.45,1.45,0,0,1-1.53-1.56c-.09-1,.58-1.45,1.69-2l.19-.09L14.78,25l-.2,0c-1.53.42-3,1.24-2.94,2.48s1.12,1.77,2.58,1.67a9.39,9.39,0,0,0,3.9-1.56,4.15,4.15,0,0,0,3.59,2c2.33,0,5.06-1.4,5.06-3.56A2,2,0,0,0,24.5,24Zm.6,2.58c-.11,1.8-1.29,2.92-3.39,2.9a3.81,3.81,0,0,1-3.39-1.92l1.23-.74c1.58-1,3.34-2.16,4.18-2.27C24.83,24.34,25.15,25.27,25.1,26.53Z"/></svg>