<svg id="Social_Icons" data-name="Social Icons" xmlns="http://www.w3.org/2000/svg" viewBox="0 0 128 128"><defs><style>.cls-1,.cls-2{fill:#2b2b2b;}.cls-2{fill-rule:evenodd;}</style></defs><g id="_7_stroke" data-name="7 stroke"><g id="Instagram"><path class="cls-1" d="M64,31.14A32.87,32.87,0,1,0,96.87,64,32.87,32.87,0,0,0,64,31.14Zm0,54.19A21.33,21.33,0,1,1,85.33,64,21.33,21.33,0,0,1,64,85.33Z" transform="translate(0 0)"/><circle class="cls-1" cx="98.16" cy="29.84" r="7.68"/><path class="cls-1" d="M127.61,37.61a47,47,0,0,0-3-15.53,31.42,31.42,0,0,0-7.38-11.34,31.42,31.42,0,0,0-11.34-7.38,47,47,0,0,0-15.53-3C83.56.07,81.38,0,64,0S44.44.07,37.61.39a47,47,0,0,0-15.53,3,31.42,31.42,0,0,0-11.34,7.38A31.29,31.29,0,0,0,3.36,22.08a47.22,47.22,0,0,0-3,15.53C.07,44.44,0,46.62,0,64S.07,83.56.38,90.39a47.22,47.22,0,0,0,3,15.53,31.29,31.29,0,0,0,7.38,11.34,31.42,31.42,0,0,0,11.34,7.38,47.22,47.22,0,0,0,15.53,3c6.83.31,9,.38,26.39.38s19.56-.07,26.39-.38a47.22,47.22,0,0,0,15.53-3,32.69,32.69,0,0,0,18.72-18.72,47,47,0,0,0,3-15.53c.32-6.83.39-9,.39-26.39S127.93,44.44,127.61,37.61ZM116.1,89.86a35.49,35.49,0,0,1-2.21,11.89,21.18,21.18,0,0,1-12.14,12.14,35.49,35.49,0,0,1-11.89,2.21c-6.75.31-8.77.37-25.86.37s-19.11-.06-25.86-.37a35.49,35.49,0,0,1-11.89-2.21,19.82,19.82,0,0,1-7.35-4.78,19.8,19.8,0,0,1-4.79-7.36A35.49,35.49,0,0,1,11.9,89.86c-.3-6.75-.37-8.77-.37-25.86s.06-19.11.37-25.86a35.35,35.35,0,0,1,2.21-11.88A19.8,19.8,0,0,1,18.9,18.9a19.77,19.77,0,0,1,7.35-4.79,35.3,35.3,0,0,1,11.89-2.2c6.75-.31,8.77-.38,25.86-.38s19.11.07,25.86.38a35.3,35.3,0,0,1,11.89,2.2,19.85,19.85,0,0,1,7.35,4.79,19.8,19.8,0,0,1,4.79,7.36,35.35,35.35,0,0,1,2.21,11.88c.3,6.75.37,8.77.37,25.86S116.4,83.12,116.1,89.86Z" transform="translate(0 0)"/><path id="Instagram-2" data-name="Instagram" class="cls-2" d="M98.16,22.16a7.68,7.68,0,1,0,7.68,7.68A7.68,7.68,0,0,0,98.16,22.16ZM64,31.14A32.87,32.87,0,1,0,96.87,64,32.87,32.87,0,0,0,64,31.14Zm0,54.19A21.33,21.33,0,1,1,85.33,64,21.33,21.33,0,0,1,64,85.33Zm0-54.19A32.87,32.87,0,1,0,96.87,64,32.87,32.87,0,0,0,64,31.14Zm0,54.19A21.33,21.33,0,1,1,85.33,64,21.33,21.33,0,0,1,64,85.33ZM98.16,22.16a7.68,7.68,0,1,0,7.68,7.68A7.68,7.68,0,0,0,98.16,22.16ZM64,31.14A32.87,32.87,0,1,0,96.87,64,32.87,32.87,0,0,0,64,31.14Zm0,54.19A21.33,21.33,0,1,1,85.33,64,21.33,21.33,0,0,1,64,85.33ZM98.16,22.16a7.68,7.68,0,1,0,7.68,7.68A7.68,7.68,0,0,0,98.16,22.16Zm0,0a7.68,7.68,0,1,0,7.68,7.68A7.68,7.68,0,0,0,98.16,22.16ZM64,31.14A32.87,32.87,0,1,0,96.87,64,32.87,32.87,0,0,0,64,31.14Zm0,54.19A21.33,21.33,0,1,1,85.33,64,21.33,21.33,0,0,1,64,85.33Zm0-54.19A32.87,32.87,0,1,0,96.87,64,32.87,32.87,0,0,0,64,31.14Zm0,54.19A21.33,21.33,0,1,1,85.33,64,21.33,21.33,0,0,1,64,85.33ZM98.16,22.16a7.68,7.68,0,1,0,7.68,7.68A7.68,7.68,0,0,0,98.16,22.16Zm0,0a7.68,7.68,0,1,0,7.68,7.68A7.68,7.68,0,0,0,98.16,22.16ZM64,31.14A32.87,32.87,0,1,0,96.87,64,32.87,32.87,0,0,0,64,31.14Zm0,54.19A21.33,21.33,0,1,1,85.33,64,21.33,21.33,0,0,1,64,85.33Zm0-54.19A32.87,32.87,0,1,0,96.87,64,32.87,32.87,0,0,0,64,31.14Zm0,54.19A21.33,21.33,0,1,1,85.33,64,21.33,21.33,0,0,1,64,85.33ZM98.16,22.16a7.68,7.68,0,1,0,7.68,7.68A7.68,7.68,0,0,0,98.16,22.16Zm0,0a7.68,7.68,0,1,0,7.68,7.68A7.68,7.68,0,0,0,98.16,22.16ZM64,31.14A32.87,32.87,0,1,0,96.87,64,32.87,32.87,0,0,0,64,31.14Zm0,54.19A21.33,21.33,0,1,1,85.33,64,21.33,21.33,0,0,1,64,85.33Zm63.61-47.72a47,47,0,0,0-3-15.53,31.42,31.42,0,0,0-7.38-11.34,31.42,31.42,0,0,0-11.34-7.38,47,47,0,0,0-15.53-3C83.56.07,81.38,0,64,0S44.44.07,37.61.39a47,47,0,0,0-15.53,3,31.42,31.42,0,0,0-11.34,7.38A31.29,31.29,0,0,0,3.36,22.08a47.22,47.22,0,0,0-3,15.53C.07,44.44,0,46.62,0,64S.07,83.56.38,90.39a47.22,47.22,0,0,0,3,15.53,31.29,31.29,0,0,0,7.38,11.34,31.42,31.42,0,0,0,11.34,7.38,47.22,47.22,0,0,0,15.53,3c6.83.31,9,.38,26.39.38s19.56-.07,26.39-.38a47.22,47.22,0,0,0,15.53-3,32.69,32.69,0,0,0,18.72-18.72,47,47,0,0,0,3-15.53c.32-6.83.39-9,.39-26.39S127.93,44.44,127.61,37.61ZM116.1,89.86a35.49,35.49,0,0,1-2.21,11.89,21.18,21.18,0,0,1-12.14,12.14,35.49,35.49,0,0,1-11.89,2.21c-6.75.31-8.77.37-25.86.37s-19.11-.06-25.86-.37a35.49,35.49,0,0,1-11.89-2.21,19.82,19.82,0,0,1-7.35-4.78,19.8,19.8,0,0,1-4.79-7.36A35.49,35.49,0,0,1,11.9,89.86c-.3-6.75-.37-8.77-.37-25.86s.06-19.11.37-25.86a35.35,35.35,0,0,1,2.21-11.88A19.8,19.8,0,0,1,18.9,18.9a19.77,19.77,0,0,1,7.35-4.79,35.3,35.3,0,0,1,11.89-2.2c6.75-.31,8.77-.38,25.86-.38s19.11.07,25.86.38a35.3,35.3,0,0,1,11.89,2.2,19.85,19.85,0,0,1,7.35,4.79,19.8,19.8,0,0,1,4.79,7.36,35.35,35.35,0,0,1,2.21,11.88c.3,6.75.37,8.77.37,25.86S116.4,83.12,116.1,89.86ZM98.16,22.16a7.68,7.68,0,1,0,7.68,7.68A7.68,7.68,0,0,0,98.16,22.16ZM64,31.14A32.87,32.87,0,1,0,96.87,64,32.87,32.87,0,0,0,64,31.14Zm0,54.19A21.33,21.33,0,1,1,85.33,64,21.33,21.33,0,0,1,64,85.33Zm0-54.19A32.87,32.87,0,1,0,96.87,64,32.87,32.87,0,0,0,64,31.14Zm0,54.19A21.33,21.33,0,1,1,85.33,64,21.33,21.33,0,0,1,64,85.33ZM98.16,22.16a7.68,7.68,0,1,0,7.68,7.68A7.68,7.68,0,0,0,98.16,22.16Zm0,0a7.68,7.68,0,1,0,7.68,7.68A7.68,7.68,0,0,0,98.16,22.16ZM64,31.14A32.87,32.87,0,1,0,96.87,64,32.87,32.87,0,0,0,64,31.14Zm0,54.19A21.33,21.33,0,1,1,85.33,64,21.33,21.33,0,0,1,64,85.33Zm0-54.19A32.87,32.87,0,1,0,96.87,64,32.87,32.87,0,0,0,64,31.14Zm0,54.19A21.33,21.33,0,1,1,85.33,64,21.33,21.33,0,0,1,64,85.33ZM98.16,22.16a7.68,7.68,0,1,0,7.68,7.68A7.68,7.68,0,0,0,98.16,22.16Zm0,0a7.68,7.68,0,1,0,7.68,7.68A7.68,7.68,0,0,0,98.16,22.16ZM64,31.14A32.87,32.87,0,1,0,96.87,64,32.87,32.87,0,0,0,64,31.14Zm0,54.19A21.33,21.33,0,1,1,85.33,64,21.33,21.33,0,0,1,64,85.33Z" transform="translate(0 0)"/></g></g></svg>