<svg id="Layer_1" data-name="Layer 1" xmlns="http://www.w3.org/2000/svg" viewBox="0 0 595.28 595.28"><defs><style>.cls-1{fill:#2b2b2b;}</style></defs><path class="cls-1" d="M297.65-1.81C133.26-1.81,0,131.48,0,295.84S133.26,593.47,297.65,593.47,595.28,460.23,595.28,295.84,462-1.81,297.65-1.81ZM447.58,235.83c.16,3.21.22,6.44.22,9.7C447.8,344.66,372.35,459,234.39,459a212.33,212.33,0,0,1-115-33.69,153.08,153.08,0,0,0,17.89,1,150.53,150.53,0,0,0,93.16-32.1,75.13,75.13,0,0,1-70.06-52.11,73.6,73.6,0,0,0,14.1,1.34,74.5,74.5,0,0,0,19.77-2.62,75.07,75.07,0,0,1-60.19-73.54c0-.33,0-.64,0-1a74.74,74.74,0,0,0,34,9.39,75.11,75.11,0,0,1-23.22-100.15A213,213,0,0,0,299.47,253.9a75.05,75.05,0,0,1,127.81-68.42,149.68,149.68,0,0,0,47.63-18.2,75.23,75.23,0,0,1-33,41.5A150.17,150.17,0,0,0,485,197,151.66,151.66,0,0,1,447.58,235.83Z" transform="translate(0 1.81)"/></svg>