<svg width="342" height="85" viewBox="0 0 342 85" fill="none" xmlns="http://www.w3.org/2000/svg">
<g clip-path="url(#clip0_712_1396)">
<path d="M55.9186 13.8324V58.4039C55.9186 61.1534 56.4565 62.3334 57.697 63.0458V63.5913H48.0802V63.0458C49.2439 62.3334 49.8587 61.1645 49.8587 58.4039V10.9271L28.4625 48.5078H27.7599L5.59522 14.2332V54.1627C5.59522 57.5467 7.92256 61.71 10.4804 63.0458V63.5913H0.0952148V63.0458C2.6531 61.71 4.98044 57.5467 4.98044 54.1627V13.4428L1.48943 8.56714H8.47146L30.724 43.3872L50.4844 8.56714H57.697V9.19052C56.4565 9.90295 55.9186 10.9939 55.9186 13.8324Z" fill="#2B2B2B"/>
<path d="M99.6551 62.3891H91.8277V51.3798C89.8077 58.2926 85.5483 62.8566 78.1052 62.8566C71.7489 62.8566 65.5463 59.7954 64.5363 54.1293C63.2189 46.1145 67.9505 41.3946 73.9115 38.8789C71.8916 34.3148 74.2958 24.5746 84.692 24.5746C91.1251 24.5746 97.9535 28.0366 97.9535 37.6989V57.1905C97.9535 59.9401 98.4914 61.12 99.6551 61.8325V62.3779V62.3891ZM91.8277 49.9661V37.8547C91.4435 37.6989 89.5772 37.1423 87.173 37.1423C78.7199 37.1423 67.2479 41.3835 70.5852 55.2202C71.5952 59.4614 76.0852 62.0551 79.9604 61.8213C86.701 61.4317 90.2688 55.6098 91.8167 49.9549L91.8277 49.9661ZM74.691 38.5672C78.8736 36.9976 83.5283 36.441 87.173 36.441C88.9515 36.441 90.5103 36.7527 91.8277 37.1534V36.608C91.8277 30.6302 89.5004 25.3649 84.0004 25.3649C77.0183 25.3649 72.3746 32.1998 74.702 38.5672H74.691Z" fill="#2B2B2B"/>
<path d="M254.116 51.1014C253.655 56.6784 248.77 64.0699 237.759 64.0699C226.748 64.0699 216.747 58.7267 216.44 45.7582C216.055 32.1552 228.219 26.2665 236.749 25.7879C243.336 25.4762 252.415 28.6933 253.49 38.2109H246.278C250.702 39.3908 254.731 43.9548 254.105 51.1014H254.116ZM243.105 38.2109H223.026C222.016 42.3741 222.247 47.0161 223.564 50.7897C226.43 59.0495 232.248 62.6561 240.152 62.3445C246.816 62.0328 252.634 57.3908 253.414 51.2573C254.347 43.0866 248.989 38.2109 243.105 38.2109ZM223.18 37.5875H247.914C246.904 30.7526 240.855 25.2424 233.258 26.7341C227.988 27.7582 224.574 32.2331 223.18 37.5875Z" fill="#2B2B2B"/>
<path d="M298.061 41.2722C298.599 60.7638 280.771 64.0699 272.087 64.0699C268.058 64.0699 265.028 62.3445 263.48 62.4224C262.394 62.5004 262.009 63.5245 261.856 64.0699H261.395V12.9753C261.395 10.2258 261.164 9.43542 259.616 9.20166V8.57828L266.982 6.93079H267.52V47.3389C268.915 38.2221 272.867 25.7991 283.724 25.7991C290.08 25.7991 297.831 31.2981 298.061 41.2833V41.2722ZM292.089 40.1701C291.705 33.3352 286.897 25.8659 280.31 27.2017C271.549 28.9271 267.52 45.3575 267.52 51.9697V62.9011C267.905 63.0569 269.694 63.6915 272.175 63.6135C279.618 63.5356 293.187 60.2295 292.1 40.1924L292.089 40.1701Z" fill="#2B2B2B"/>
<path d="M304.22 15.7249C304.22 13.6767 305.845 12.0292 307.865 12.0292C309.885 12.0292 311.51 13.6767 311.51 15.7249C311.51 17.7731 309.885 19.4206 307.865 19.4206C305.845 19.4206 304.22 17.7731 304.22 15.7249Z" fill="#2B2B2B"/>
<path d="M341.095 63.0459V63.5913H331.479V63.0459C332.719 62.3334 333.026 60.9976 332.796 58.4039C332.565 55.8102 331.402 42.5189 331.018 38.4336C330.48 32.5338 327.603 25.8548 320.94 27.1906C312.256 28.916 310.631 45.3464 310.631 51.9587V58.4039C310.631 61.1535 311.169 62.3334 312.41 63.0459V63.5913H302.793V63.0459C303.957 62.3334 304.495 61.1646 304.495 58.4039V31.8325C304.495 29.083 304.264 28.2926 302.793 28.0588V27.5134L310.082 25.788H310.62V45.2796C311.63 36.4744 314.265 25.788 324.343 25.788C330.699 25.788 336.122 30.185 337.055 39.6247C337.835 47.2499 338.603 55.5097 338.911 58.4151C339.218 61.2425 339.921 62.3446 341.084 63.057L341.095 63.0459Z" fill="#2B2B2B"/>
<path d="M206.768 25.6878C206.307 25.6432 205.824 25.6321 205.319 25.6321C199.368 25.6766 196.635 31.7657 195.296 38.7453C194.802 40.8937 194.505 43.1312 194.286 45.2351L194.022 6.86401H193.407L186.129 8.5783V9.20168C187.688 9.42431 187.918 10.2147 187.94 12.9642L188.259 58.3928C188.259 59.595 188.171 60.4967 187.951 61.1868C187.929 61.287 187.885 61.3872 187.852 61.4763C187.677 61.9327 187.446 62.2889 187.139 62.5783C187.029 62.7008 186.886 62.8009 186.744 62.9011C186.667 62.9456 186.59 62.9902 186.513 63.0347C186.513 63.2017 186.513 63.5802 186.513 63.5802L196.13 63.5245C196.13 63.5245 196.13 63.1349 196.13 62.979C196.053 62.9234 195.987 62.8789 195.921 62.8343C195.779 62.7341 195.658 62.6228 195.537 62.5115C195.252 62.2221 195.01 61.8659 194.824 61.4095C194.791 61.3204 194.758 61.2202 194.725 61.12C194.516 60.4299 194.395 59.5282 194.384 58.326L194.362 55.2648C194.34 51.9809 194.538 45.4021 195.658 39.4132C196.218 36.3742 197.008 33.4688 198.15 31.2425C199.116 29.3278 200.334 27.9141 201.849 27.3241C202.146 27.2017 202.453 27.1126 202.783 27.057C203.288 26.979 203.771 26.9902 204.221 27.0904C207.47 27.7805 209.205 32.7341 209.358 36.6748L209.907 36.9865L213.135 32.3111L214.595 30.1961C212.246 27.4577 210.105 25.9772 206.779 25.6766L206.768 25.6878Z" fill="#2B2B2B"/>
<path d="M169.223 68.6562C165.271 68.812 160.462 72.9085 154.721 76.3594C149.759 79.4317 145.269 82.4929 141.317 82.415C138.44 82.415 137.123 80.5338 136.969 77.9401C136.717 74.8788 139.154 73.0198 142.294 72.0402L143.589 71.2833C142.963 71.3946 142.326 71.5282 141.69 71.684C137.145 72.8306 132.666 75.235 132.787 78.953C132.863 82.5709 135.959 84.0625 140.076 83.7508C143.721 83.5171 147.596 81.4688 151.153 79.2759C153.019 81.8696 155.731 84.9308 161.319 84.9308C167.905 84.9308 175.656 80.9234 175.656 74.7119C175.656 71.2499 173.877 68.5783 169.223 68.6562ZM170.924 76.0477C170.617 81.2351 167.28 84.4633 161.319 84.3853C155.577 84.3074 153.173 81.0792 151.702 78.8751C152.865 78.1738 154.029 77.4614 155.193 76.7601C159.683 73.9215 164.645 70.5486 167.049 70.2369C170.156 69.7582 171.078 72.4299 170.924 76.0477Z" fill="#2B2B2B"/>
<path d="M177.357 36.4855L173.592 29.7842L169.991 28.9605L172.703 26.4336L172.659 18.7082L166.083 14.812L162.57 15.9252L163.668 12.3631L159.826 5.69517L152.218 5.65064L149.715 8.40017L148.913 4.7601L142.294 0.930786L135.685 4.7601L134.872 8.40017L132.38 5.65064L124.762 5.69517L120.919 12.3631L122.028 15.9252L118.504 14.812L111.928 18.7082L111.884 26.4336L114.607 28.9605L111.006 29.7842L107.241 36.4855L111.006 43.1868L114.607 44.0106L111.884 46.5375L111.928 54.2629L118.504 58.159L122.028 57.0458L120.919 60.6191L124.762 67.2759L132.38 67.3204L134.872 64.5709L135.685 68.2109L141.69 71.684L142.294 72.0403L143.589 71.2833H143.6L144.094 70.9939H144.105L148.913 68.2109L149.715 64.5709L152.218 67.3204L159.826 67.2759L163.668 60.6191L162.57 57.0458L166.083 58.159L172.659 54.2518L172.703 46.5375L169.991 44.0106L173.592 43.1868L177.357 36.4855ZM165.523 17.7397L169.892 20.3334L169.925 25.4651L166.171 28.0143L158.398 27.0569L161.472 19.7545L165.523 17.7397ZM156.17 46.4484L158.662 53.0829L152.097 50.5449L152.525 46.8937L156.17 46.4484ZM156.159 26.556L152.558 26.1219L152.13 22.415L158.673 19.8881L156.159 26.556ZM156.291 40.3148L159.233 38.0885L164.656 42.5634L157.718 43.6989L156.291 40.3148ZM159.2 34.9159L156.302 32.7119L157.751 29.2833L164.656 30.4076L159.2 34.9159ZM153.173 8.46696L158.234 8.50036L160.792 12.9308L158.794 17.0384L151.592 20.1553L150.648 12.274L153.173 8.46696ZM149.407 20.8566L146.07 22.3037L143.874 19.3204L148.288 13.8102L149.407 20.8566ZM137.902 6.70815L142.294 4.17012L146.696 6.70815L147.003 11.2833L142.294 17.6395L137.595 11.2833L137.902 6.70815ZM136.311 13.8102L140.746 19.3427L138.572 22.2926L135.191 20.812L136.311 13.8102ZM126.364 8.50036L131.425 8.46696L133.939 12.274L132.995 20.1553L125.794 17.0384L123.807 12.9308L126.364 8.50036ZM132.04 46.8492L132.468 50.556L125.925 53.0829L128.516 46.1924L128.439 46.4262L132.04 46.8492ZM125.387 38.0551L128.286 40.2592L126.837 43.6877L119.931 42.5634L125.387 38.0551ZM125.354 34.8937L119.931 30.4076L126.869 29.2833L128.308 32.6562L125.354 34.8937ZM128.417 26.5226L125.925 19.8881L132.501 22.4261L132.073 26.0774L128.417 26.5226ZM114.695 20.3334L119.064 17.7397L123.115 19.7545L126.2 27.0569L118.416 28.0143L114.662 25.4651L114.695 20.3334ZM112.927 40.9382L110.424 36.4855L112.927 32.0217L117.439 31.7211L123.708 36.4855L117.439 41.2499L112.927 40.9382ZM119.064 55.2313L114.695 52.6377L114.662 47.5059L118.416 44.9568L126.2 45.9141L123.115 53.2165L119.064 55.2313ZM131.425 64.5041L126.364 64.4707L123.807 60.0403L125.794 55.9326L133.006 52.8158L133.939 60.697L131.425 64.5041ZM135.191 52.1145L138.517 50.6673L140.724 53.6506L140.888 53.4391L138.627 50.3668L140.899 53.4391L140.724 53.6506L136.311 59.1609L135.191 52.1145ZM146.696 66.5968L142.294 69.1349L137.902 66.5968L137.573 61.7211L142.294 55.3427L147.014 61.7211L146.696 66.5968ZM148.288 59.1609L143.852 53.6284L146.026 50.6896L149.396 52.159L148.288 59.1609ZM149.506 43.7991L149.023 48.2963L144.939 46.4707L142.294 50.1219L139.659 46.4818L135.575 48.2963L135.081 43.7991L130.646 43.3093L132.446 39.1683L128.846 36.4855L132.446 33.8028L130.646 29.6618L135.081 29.172L135.575 24.6748L139.659 26.5004L142.294 22.8492L144.939 26.5004L149.023 24.6748L149.506 29.172L153.941 29.6618L152.152 33.8028L155.753 36.4855L152.152 39.1683L153.941 43.3093L149.506 43.7991ZM160.945 60.3297L158.827 55.9549L158.794 55.9326L160.781 60.0514L158.234 64.4818L153.162 64.5152L150.648 60.7082L151.592 52.8158L158.794 55.9326H158.838L160.956 60.3297H160.945ZM169.892 52.6377L165.523 55.2313L161.472 53.2165L158.398 45.9141L166.182 44.9568L169.925 47.5059L169.892 52.6377ZM167.159 41.2499L160.89 36.4855L167.159 31.7211L171.66 32.0328L174.163 36.4855L171.66 40.9493L167.159 41.2499Z" fill="#2B2B2B"/>
</g>
<defs>
<clipPath id="clip0_712_1396">
<rect width="341" height="84" fill="white" transform="translate(0.0952148 0.930786)"/>
</clipPath>
</defs>
</svg>
