<?xml version="1.0" encoding="utf-8"?>
<!-- Generator: Adobe Illustrator 24.2.3, SVG Export Plug-In . SVG Version: 6.00 Build 0)  -->
<svg version="1.1" id="Layer_1" xmlns="http://www.w3.org/2000/svg" xmlns:xlink="http://www.w3.org/1999/xlink" x="0px" y="0px"
	 viewBox="0 0 26 27" style="enable-background:new 0 0 26 27;" xml:space="preserve">
<style type="text/css">
	.st0{fill:#FFFFFF;}
</style>
<path class="st0" d="M25.4,13.1l-1.4-2.5l-1.3-0.3l1-0.9l0-2.9l-2.4-1.4l-1.3,0.4l0.4-1.3l-1.4-2.5l-2.7,0l-0.9,1l-0.3-1.3L12.8,0
	l-2.4,1.4l-0.3,1.3l-0.9-1l-2.7,0L5.1,4.2l0.4,1.3L4.2,5.1L1.8,6.6l0,2.9l1,0.9l-1.3,0.3l-1.4,2.5l1.4,2.5l1.3,0.3l-1,0.9l0,2.9
	l2.4,1.4l1.3-0.4L5.1,22l1.4,2.5l2.7,0l0.9-1l0.3,1.3l2.2,1.3l0.2,0.1l0.5-0.3h0l0.2-0.1h0l1.7-1l0.3-1.3l0.9,1l2.7,0l1.4-2.5
	l-0.4-1.3l1.3,0.4l2.4-1.4l0-2.8l-1-0.9l1.3-0.3L25.4,13.1z M21.2,6.2l1.6,1l0,1.9L21.4,10l-2.8-0.4l1.1-2.7L21.2,6.2z M17.8,16.8
	l0.9,2.4l-2.4-0.9l0.2-1.3L17.8,16.8z M17.8,9.5l-1.3-0.2l-0.2-1.4L18.7,7L17.8,9.5z M17.8,14.5l1.1-0.8l2,1.7l-2.5,0.4L17.8,14.5z
	 M18.9,12.5l-1-0.8l0.5-1.3l2.5,0.4L18.9,12.5z M16.7,2.8l1.8,0l0.9,1.6l-0.7,1.5l-2.6,1.2l-0.3-2.9L16.7,2.8z M15.4,7.4l-1.2,0.5
	l-0.8-1.1l1.6-2L15.4,7.4z M11.2,2.1l1.6-0.9l1.6,0.9l0.1,1.7l-1.7,2.3l-1.7-2.3L11.2,2.1z M10.6,4.8l1.6,2l-0.8,1.1l-1.2-0.5
	L10.6,4.8z M7,2.8l1.8,0l0.9,1.4L9.4,7.1L6.8,5.9L6.1,4.4L7,2.8z M9.1,16.9l0.2,1.4l-2.4,0.9l0.9-2.5l0,0.1L9.1,16.9z M6.7,13.7
	l1,0.8l-0.5,1.3l-2.5-0.4L6.7,13.7z M6.7,12.5l-2-1.7l2.5-0.4l0.5,1.2L6.7,12.5z M7.8,9.4L6.9,7l2.4,0.9L9.1,9.3L7.8,9.4z M2.8,7.2
	l1.6-1l1.5,0.7L7,9.6L4.2,10L2.8,9.1L2.8,7.2z M2.2,14.8l-0.9-1.6l0.9-1.6l1.6-0.1l2.3,1.8l-2.3,1.8L2.2,14.8z M4.4,20l-1.6-1l0-1.9
	l1.4-0.9L7,16.6l-1.1,2.7L4.4,20z M8.9,23.5l-1.8,0l-0.9-1.6l0.7-1.5l2.6-1.2l0.3,2.9L8.9,23.5z M10.2,18.9l1.2-0.5l0.8,1.1l0.1-0.1
	l-0.8-1.1l0.8,1.1l-0.1,0.1l-1.6,2L10.2,18.9z M14.4,24.2l-1.6,0.9l-1.6-0.9l-0.1-1.8l1.7-2.4l1.7,2.4L14.4,24.2z M15,21.5l-1.6-2
	l0.8-1.1l1.2,0.5L15,21.5z M15.4,15.8l-0.2,1.7l-1.5-0.7l-1,1.3l-1-1.3l-1.5,0.7l-0.2-1.7l-1.6-0.2l0.6-1.5l-1.3-1l1.3-1l-0.6-1.5
	l1.6-0.2l0.2-1.7l1.5,0.7l1-1.3l1,1.3l1.5-0.7l0.2,1.7l1.6,0.2l-0.6,1.5l1.3,1l-1.3,1l0.6,1.5L15.4,15.8z M19.5,21.9l-0.8-1.6l0,0
	l0.7,1.5l-0.9,1.6l-1.8,0l-0.9-1.4l0.3-2.9l2.6,1.2h0L19.5,21.9L19.5,21.9z M22.7,19.1l-1.6,1l-1.5-0.7l-1.1-2.7l2.8-0.4l1.4,0.9
	L22.7,19.1z M21.8,14.9l-2.3-1.8l2.3-1.8l1.6,0.1l0.9,1.6l-0.9,1.6L21.8,14.9z"/>
</svg>
