<svg id="Layer_1" data-name="Layer 1" xmlns="http://www.w3.org/2000/svg" viewBox="0 0 25.3 26.2"><path d="M25.65,13.5,24.25,11,23,10.7l1-.9V6.9l-2.4-1.4-1.3.4.4-1.3-1.4-2.5h-2.7l-.9,1-.3-1.3L13.05.4l-2.4,1.4-.3,1.3-.9-1H6.75L5.35,4.6l.4,1.3-1.3-.4L2.05,7V9.9l1,.9-1.3.3L.35,13.6l1.4,2.5,1.3.3-1,.9v2.9l2.4,1.4,1.3-.4-.4,1.2,1.4,2.5h2.7l.9-1,.3,1.3,2.2,1.3.2.1.5-.3.2-.1,1.7-1,.3-1.3.9,1h2.7l1.4-2.5-.4-1.3,1.3.4,2.4-1.4V17.3l-1-.9,1.3-.3Zm-4.2-6.9,1.6,1V9.5l-1.4.9-2.8-.4L20,7.3Zm-3.4,8.3,1.1-.8,2,1.7-2.5.4Zm.9,4.7-2.4-.9.2-1.3,1.3-.2Zm-2.2-9.9-.2-1.4L19,7.4l-.9,2.5Zm1.4,2.4.5-1.3,2.5.4-2,1.7ZM17,3.2h1.8l.9,1.6L19,6.3l-2.6,1.2-.3-2.9Zm-1.3,4.6-1.2.5-.8-1.1,1.6-2Zm-4.2-5.3,1.6-.9,1.6.9.1,1.7-1.7,2.3-1.7-2.3Zm-.6,2.7,1.6,2-.8,1.1-1.2-.5Zm-3.6-2h1.8L10,4.6l-.3,2.9L7.05,6.3l-.7-1.5Zm2.1,14.1.2,1.4-2.4.9.9-2.5v.1Zm-1.9-1.1L5,15.8l2-1.7,1,.8ZM7,12.9,5,11.2l2.5-.4L8,12Zm.2-5.5,2.4.9-.2,1.4-1.3.1Zm-4.1.2,1.6-1,1.5.7L7.25,10l-2.8.4-1.4-.9Zm-.6,7.6-.9-1.6.9-1.6,1.6-.1,2.3,1.8-2.3,1.8Zm2.2,5.2-1.6-1V17.5l1.4-.9,2.8.4-1.1,2.7Zm4.5,3.5H7.35l-.9-1.6.7-1.5,2.6-1.2.3,2.9Zm1.3-4.6,1.2-.5.8,1.1-1.6,2Zm4.2,5.3-1.6.9-1.6-.9-.1-1.8,1.7-2.4,1.7,2.4Zm.6-2.7-1.6-2,.8-1.1,1.2.5Zm.4-5.7-.2,1.7L14,17.2l-1,1.3-1-1.3-1.5.7-.2-1.7L8.65,16l.6-1.5L8,13.5l1.3-1L8.65,11l1.6-.2.2-1.7,1.5.7,1-1.3,1,1.3,1.5-.7.2,1.7,1.6.2-.6,1.5,1.3,1-1.3,1,.6,1.5Zm3.1,7.6H17l-.9-1.4.3-2.9L19,20.7l.7,1.5ZM23,19.5l-1.6,1-1.5-.7-1.1-2.7,2.8-.4,1.4.9Zm-.9-4.2-2.3-1.8,2.3-1.8,1.6.1.9,1.6-.9,1.6Z" transform="translate(-0.35 -0.4)"/></svg>