<svg width="34" height="31" viewBox="0 0 34 31" fill="none" xmlns="http://www.w3.org/2000/svg">
<g filter="url(#filter0_d_688_50)">
<path d="M29.4392 13.1214L28.081 10.6483L26.7822 10.3443L27.7603 9.41174L27.7444 6.5607L25.3725 5.12285L24.1054 5.53366L24.5013 4.21906L23.1154 1.75828L20.3713 1.74185L19.4684 2.75656L19.1793 1.4132L16.7916 0L14.4078 1.4132L14.1147 2.75656L13.2159 1.74185L10.4677 1.75828L9.0818 4.21906L9.48174 5.53366L8.21064 5.12285L5.8387 6.5607L5.82286 9.41174L6.8049 10.3443L5.50608 10.6483L4.14786 13.1214L5.50608 15.5945L6.8049 15.8985L5.82286 16.831L5.8387 19.6821L8.21064 21.1199L9.48174 20.7091L9.0818 22.0278L10.4677 24.4845L13.2159 24.5009L14.1147 23.4862L14.4078 24.8296L16.5738 26.1113L16.7916 26.2428L17.2588 25.9634H17.2628L17.441 25.8566H17.4449L19.1793 24.8296L19.4684 23.4862L20.3713 24.5009L23.1154 24.4845L24.5013 22.0278L24.1054 20.7091L25.3725 21.1199L27.7444 19.678L27.7603 16.831L26.7822 15.8985L28.081 15.5945L29.4392 13.1214ZM25.1706 6.20329L26.7466 7.16048L26.7584 9.05433L25.4042 9.9951L22.6006 9.6418L23.7094 6.94686L25.1706 6.20329ZM21.7968 16.7982L22.6957 19.2466L20.3277 18.31L20.4821 16.9625L21.7968 16.7982ZM21.7928 9.45693L20.494 9.29671L20.3396 7.9287L22.6996 6.99616L21.7928 9.45693ZM21.8403 14.5346L22.9016 13.713L24.8577 15.3644L22.3551 15.7835L21.8403 14.5346ZM22.8897 12.5421L21.8443 11.7287L22.367 10.4634L24.8577 10.8783L22.8897 12.5421ZM20.7158 2.78121L22.5412 2.79353L23.4639 4.42857L22.7432 5.94447L20.1455 7.09475L19.805 4.18619L20.7158 2.78121ZM19.3575 7.35357L18.1538 7.88762L17.3618 6.78664L18.9536 4.75311L19.3575 7.35357ZM15.2076 2.13212L16.7916 1.19547L18.3795 2.13212L18.4903 3.82057L16.7916 6.16631L15.0968 3.82057L15.2076 2.13212ZM14.6335 4.75311L16.2332 6.79486L15.4492 7.88352L14.2296 7.33713L14.6335 4.75311ZM11.0459 2.79353L12.8713 2.78121L13.7781 4.18619L13.4376 7.09475L10.84 5.94447L10.1232 4.42857L11.0459 2.79353ZM13.0931 16.9461L13.2475 18.3141L10.8875 19.2466L11.822 16.7037L11.7943 16.79L13.0931 16.9461ZM10.6934 13.7006L11.7388 14.514L11.2161 15.7794L8.72541 15.3644L10.6934 13.7006ZM10.6816 12.5339L8.72541 10.8783L11.228 10.4634L11.7468 11.7082L10.6816 12.5339ZM11.7864 9.44461L10.8875 6.99616L13.2594 7.93281L13.105 9.28028L11.7864 9.44461ZM6.83658 7.16048L8.41259 6.20329L9.87376 6.94686L10.9865 9.6418L8.17896 9.9951L6.8247 9.05433L6.83658 7.16048ZM6.19905 14.7646L5.29621 13.1214L6.19905 11.474L7.82653 11.3631L10.0876 13.1214L7.82653 14.8797L6.19905 14.7646ZM8.41259 20.0395L6.83658 19.0823L6.8247 17.1884L8.17896 16.2477L10.9865 16.601L9.87376 19.2959L8.41259 20.0395ZM12.8713 23.4616L11.0459 23.4492L10.1232 21.8142L10.84 20.2983L13.4416 19.148L13.7781 22.0566L12.8713 23.4616ZM14.2296 18.8892L15.4294 18.3552L16.2253 19.4561L16.2847 19.3781L15.469 18.2442L16.2887 19.3781L16.2253 19.4561L14.6335 21.4897L14.2296 18.8892ZM18.3795 24.2339L16.7916 25.1706L15.2076 24.2339L15.0888 22.4345L16.7916 20.0806L18.4943 22.4345L18.3795 24.2339ZM18.9536 21.4897L17.3539 19.4479L18.1379 18.3634L19.3536 18.9056L18.9536 21.4897ZM19.3932 15.8204L19.2189 17.4801L17.7459 16.8064L16.7916 18.1539L15.8412 16.8105L14.3682 17.4801L14.19 15.8204L12.5902 15.6397L13.2396 14.1115L11.9408 13.1214L13.2396 12.1313L12.5902 10.6031L14.19 10.4223L14.3682 8.76266L15.8412 9.43639L16.7916 8.08892L17.7459 9.43639L19.2189 8.76266L19.3932 10.4223L20.9929 10.6031L20.3475 12.1313L21.6463 13.1214L20.3475 14.1115L20.9929 15.6397L19.3932 15.8204ZM23.5193 21.921L22.7551 20.3065L22.7432 20.2983L23.4599 21.8183L22.5412 23.4534L20.7118 23.4657L19.805 22.0607L20.1455 19.148L22.7432 20.2983H22.759L23.5233 21.921H23.5193ZM26.7466 19.0823L25.1706 20.0395L23.7094 19.2959L22.6006 16.601L25.4081 16.2477L26.7584 17.1884L26.7466 19.0823ZM25.7606 14.8797L23.4995 13.1214L25.7606 11.3631L27.3841 11.4781L28.2869 13.1214L27.3841 14.7688L25.7606 14.8797Z" fill="#734B16" fill-opacity="0.62" shape-rendering="crispEdges"/>
</g>
<defs>
<filter id="filter0_d_688_50" x="0.147858" y="0" width="33.2914" height="34.2428" filterUnits="userSpaceOnUse" color-interpolation-filters="sRGB">
<feFlood flood-opacity="0" result="BackgroundImageFix"/>
<feColorMatrix in="SourceAlpha" type="matrix" values="0 0 0 0 0 0 0 0 0 0 0 0 0 0 0 0 0 0 127 0" result="hardAlpha"/>
<feOffset dy="4"/>
<feGaussianBlur stdDeviation="2"/>
<feComposite in2="hardAlpha" operator="out"/>
<feColorMatrix type="matrix" values="0 0 0 0 0 0 0 0 0 0 0 0 0 0 0 0 0 0 0.25 0"/>
<feBlend mode="normal" in2="BackgroundImageFix" result="effect1_dropShadow_688_50"/>
<feBlend mode="normal" in="SourceGraphic" in2="effect1_dropShadow_688_50" result="shape"/>
</filter>
</defs>
</svg>
